<svg xmlns="http://www.w3.org/2000/svg" viewBox="0 0 676.44 207.13"><defs><style>.cls-1{font-size:54.39px;font-family:Gibson-Regular, Gibson;}.cls-2{letter-spacing:0em;}.cls-3{letter-spacing:0em;}</style></defs><g id="Layer_2" data-name="Layer 2"><g id="Layer_1-2" data-name="Layer 1"><path d="M64.57,0,0,64.57V194.89H130.31l64.58-64.57V0Zm58.92,123.5H72.06V71.4h51.43ZM9.65,68.57,62.42,15.8V133.15h61.07v52.09H9.65Zm175.59,57.75-52.1,52.1V61.75H72.06V9.65H185.24Z"/><path d="M294.8,76.26a28.1,28.1,0,1,0,28.1,28.09A28.12,28.12,0,0,0,294.8,76.26Zm0,46.06a18,18,0,1,1,18-18A18,18,0,0,1,294.8,122.32Z"/><polygon points="388.01 131 388.01 111.41 406.95 131 421.04 131 393.06 102.06 418.15 77.81 403.57 77.81 388.01 92.84 388.01 61.89 377.88 61.89 377.88 131 388.01 131"/><polygon points="236.47 61.89 226.34 61.89 226.34 131.06 267.96 131.06 267.96 120.93 236.47 120.93 236.47 61.89"/><path d="M367.35,117.06a18,18,0,1,1,0-25.41l7.16-7.16a28.1,28.1,0,1,0,0,39.73Z"/><path d="M535.08,83.6a27.27,27.27,0,1,0,0,42.38v5h10.13V76.85H535.08Zm-17.14,38.33a17.14,17.14,0,1,1,17.14-17.14A17.16,17.16,0,0,1,517.94,121.93Z"/><path d="M561.29,83.06V76.85H551.16V131h10.13V102.66a17.69,17.69,0,0,1,17.57-16v-10A27.48,27.48,0,0,0,561.29,83.06Z"/><path d="M460.18,108.08a13.77,13.77,0,1,1-27.54,0V77.81H422.51v30.27a23.9,23.9,0,1,0,47.8,0V77.81H460.18Z"/><rect x="475.65" y="61.89" width="10.13" height="69.11"/><text class="cls-1" transform="translate(224.24 194.9)"><tspan class="cls-2">C</tspan><tspan x="35.9" y="0">onn</tspan><tspan class="cls-3" x="125.81" y="0">e</tspan><tspan x="154.85" y="0">ct</tspan><tspan class="cls-3" x="197.6" y="0">e</tspan><tspan x="226.65" y="0">d Devices</tspan></text></g></g></svg>