<svg xmlns="http://www.w3.org/2000/svg" xmlns:xlink="http://www.w3.org/1999/xlink" width="200" height="200" viewBox="0 0 200 200">
  <defs>
    <clipPath id="clip-path">
      <rect id="Rectangle_125" data-name="Rectangle 125" width="200" height="200" transform="translate(4748 4729)" fill="#fff" stroke="#707070" stroke-width="1"/>
    </clipPath>
  </defs>
  <g id="artifact_store" transform="translate(-4748 -4729)" clip-path="url(#clip-path)">
    <g id="Layer_1" transform="translate(4748 4748)">
      <g id="Group_246" data-name="Group 246">
        <path id="Path_269" data-name="Path 269" d="M198.4,124.83c-.3-22.58-.3-45.96-.3-68.57V55.03l-.97-.75c-10.96-8.47-21.87-17.6-32.42-26.44-10.59-8.86-21.54-18.03-32.58-26.56L130.47,0,96.43,30.96H63.48a10.4,10.4,0,1,0-.5,5H98.37L130.73,6.52c10.4,8.1,20.75,16.76,30.77,25.15,10.28,8.6,20.9,17.49,31.6,25.81,0,21.89,0,44.48.29,66.37l-13.34,13.62c-1.05,0-2.09.01-3.14.02V97.56h-44.2v40.17c-1.63,0-3.27.01-4.9.02V97.57H83.61v16.9H62.54a10.4,10.4,0,1,0,.1,5H83.61v18.25q-19.485-.06-39.09-.22a10.394,10.394,0,1,0-.26,5c22.27.18,44.32.27,66.41.27,23.31,0,46.69-.1,70.46-.3h1.04l16.25-16.59v-1.04ZM53.2,37.86a5.4,5.4,0,1,1,5.4-5.4A5.4,5.4,0,0,1,53.2,37.86Zm108.7,65.7v11.7H148v-11.7Zm-24.2-1H143v17.7h23.9v-17.7h5v34.2H137.7Zm-85.2,20a5.4,5.4,0,1,1,5.4-5.4A5.4,5.4,0,0,1,52.5,122.56Zm60-19v11.7H98.6v-11.7Zm-23.9-1h5v17.7h23.9v-17.7h5.3v34.2H88.6Zm-54.3,42.3a5.4,5.4,0,1,1,5.4-5.4A5.4,5.4,0,0,1,34.3,144.86Z" fill="#fff"/>
        <path id="Path_270" data-name="Path 270" d="M198.4,124.83c-.3-22.58-.3-45.96-.3-68.57V55.03l-.97-.75c-10.96-8.47-21.87-17.6-32.42-26.44-10.59-8.86-21.54-18.03-32.58-26.56L130.47,0,96.43,30.96H63.48a10.4,10.4,0,1,0-.5,5H98.37L130.73,6.52c10.4,8.1,20.75,16.76,30.77,25.15,10.28,8.6,20.9,17.49,31.6,25.81,0,21.89,0,44.48.29,66.37l-13.34,13.62c-1.05,0-2.09.01-3.14.02V97.56h-44.2v40.17c-1.63,0-3.27.01-4.9.02V97.57H83.61v16.9H62.54a10.4,10.4,0,1,0,.1,5H83.61v18.25q-19.485-.06-39.09-.22a10.394,10.394,0,1,0-.26,5c22.27.18,44.32.27,66.41.27,23.31,0,46.69-.1,70.46-.3h1.04l16.25-16.59v-1.04ZM53.2,37.86a5.4,5.4,0,1,1,5.4-5.4A5.4,5.4,0,0,1,53.2,37.86Zm108.7,65.7v11.7H148v-11.7Zm-24.2-1H143v17.7h23.9v-17.7h5v34.2H137.7Zm-85.2,20a5.4,5.4,0,1,1,5.4-5.4A5.4,5.4,0,0,1,52.5,122.56Zm60-19v11.7H98.6v-11.7Zm-23.9-1h5v17.7h23.9v-17.7h5.3v34.2H88.6Zm-54.3,42.3a5.4,5.4,0,1,1,5.4-5.4A5.4,5.4,0,0,1,34.3,144.86Z" fill="rgba(0,0,0,0)"/>
      </g>
      <g id="Group_247" data-name="Group 247">
        <path id="Path_271" data-name="Path 271" d="M107.8,92.96v-.1h41.7V48.66H105.3v39.3H20.77a10.4,10.4,0,0,0-10.38-9.9,10.4,10.4,0,0,0,.01,20.8,10.407,10.407,0,0,0,9.36-5.9Zm27-36.1v11.7H120.9V56.86Zm-24.5-3.2h5.6v19.9h23.9V53.66h4.7v34.2H110.3ZM10.4,93.86a5.4,5.4,0,1,1,5.38-5.9h-.17V89.9a5.4,5.4,0,0,1-5.2,3.96Z" fill="#fff"/>
        <path id="Path_272" data-name="Path 272" d="M107.8,92.96v-.1h41.7V48.66H105.3v39.3H20.77a10.4,10.4,0,0,0-10.38-9.9,10.4,10.4,0,0,0,.01,20.8,10.407,10.407,0,0,0,9.36-5.9Zm27-36.1v11.7H120.9V56.86Zm-24.5-3.2h5.6v19.9h23.9V53.66h4.7v34.2H110.3ZM10.4,93.86a5.4,5.4,0,1,1,5.38-5.9h-.17V89.9a5.4,5.4,0,0,1-5.2,3.96Z" fill="rgba(0,0,0,0)"/>
      </g>
    </g>
  </g>
</svg>
