<svg xmlns="http://www.w3.org/2000/svg" xmlns:xlink="http://www.w3.org/1999/xlink" width="200" height="200" viewBox="0 0 200 200">
  <defs>
    <clipPath id="clip-path">
      <rect id="Rectangle_131" data-name="Rectangle 131" width="200" height="200" transform="translate(5222 4927)" fill="#fff" stroke="#707070" stroke-width="1"/>
    </clipPath>
  </defs>
  <g id="connected_devices" transform="translate(-5222 -4927)" clip-path="url(#clip-path)">
    <g id="Layer_1" transform="translate(5224.42 4941)">
      <g id="Group_248" data-name="Group 248">
        <path id="Path_273" data-name="Path 273" d="M185.66,139.7a9.018,9.018,0,0,0-8.72,6.8H159.53l-7-5.6H136.85V122.3H152.7a9.006,9.006,0,1,0-.17-5H136.85V97.7h6.26l11.8-12.2c4.54,0,5.2,0,9.4.08a9,9,0,1,0,.01-5c-4.47-.08-4.93-.08-10.47-.08h-1.06l-11.8,12.2h-4.14V60h-13.7V44a43.99,43.99,0,1,0-87.98,0V60h-.54L19.77,74.86V77.4h4l.27.27.27-.27h.46v-.46L36.71,65h95.16V92.7H105.21a9.008,9.008,0,0,0-8.64-6.5,8.81,8.81,0,0,0-8.47,6H59.47v5H87.8a9.007,9.007,0,0,0,8.77,7,8.848,8.848,0,0,0,8.64-6.5h26.66v19.6H105.29a8.991,8.991,0,0,0-17.44,0H59.47v5H88.02a9,9,0,0,0,17.1,0h26.75v18.6H105.26a9,9,0,0,0-8.69-6.7,9.171,9.171,0,0,0-8.82,7.2H59.47v5h28.7a8.995,8.995,0,0,0,16.99-.5h26.71v2.06L112.54,167.2H24.77V159h-5v13.2H114.6l22.27-22.16V145.9h13.92l7,5.6h19.33a9,9,0,1,0,8.55-11.8Zm-24.39-24.2a4,4,0,1,1-4,4A4,4,0,0,1,161.27,115.5Zm11.7-36.4a4,4,0,1,1-4,4A4,4,0,0,1,172.97,79.1ZM106.56,59.2H51.16V47.7c0-16.93,12.43-30.7,27.7-30.7s27.7,13.77,27.7,30.7ZM40.17,44a39,39,0,1,1,78,0V59.2h-6.6V47.7c0-19.69-14.67-35.7-32.7-35.7s-32.7,16.01-32.7,35.7V59.2h-6ZM96.56,99.2a4,4,0,1,1,4-4A4,4,0,0,1,96.56,99.2Zm0,24.3a4,4,0,1,1,4-4A4,4,0,0,1,96.56,123.5Zm0,23.7a4,4,0,1,1,4-4A4,4,0,0,1,96.56,147.2Zm89.1,5.5a4,4,0,1,1,4-4A4,4,0,0,1,185.66,152.7Z" fill="#fff"/>
        <path id="Path_274" data-name="Path 274" d="M185.66,139.7a9.018,9.018,0,0,0-8.72,6.8H159.53l-7-5.6H136.85V122.3H152.7a9.006,9.006,0,1,0-.17-5H136.85V97.7h6.26l11.8-12.2c4.54,0,5.2,0,9.4.08a9,9,0,1,0,.01-5c-4.47-.08-4.93-.08-10.47-.08h-1.06l-11.8,12.2h-4.14V60h-13.7V44a43.99,43.99,0,1,0-87.98,0V60h-.54L19.77,74.86V77.4h4l.27.27.27-.27h.46v-.46L36.71,65h95.16V92.7H105.21a9.008,9.008,0,0,0-8.64-6.5,8.81,8.81,0,0,0-8.47,6H59.47v5H87.8a9.007,9.007,0,0,0,8.77,7,8.848,8.848,0,0,0,8.64-6.5h26.66v19.6H105.29a8.991,8.991,0,0,0-17.44,0H59.47v5H88.02a9,9,0,0,0,17.1,0h26.75v18.6H105.26a9,9,0,0,0-8.69-6.7,9.171,9.171,0,0,0-8.82,7.2H59.47v5h28.7a8.995,8.995,0,0,0,16.99-.5h26.71v2.06L112.54,167.2H24.77V159h-5v13.2H114.6l22.27-22.16V145.9h13.92l7,5.6h19.33a9,9,0,1,0,8.55-11.8Zm-24.39-24.2a4,4,0,1,1-4,4A4,4,0,0,1,161.27,115.5Zm11.7-36.4a4,4,0,1,1-4,4A4,4,0,0,1,172.97,79.1ZM106.56,59.2H51.16V47.7c0-16.93,12.43-30.7,27.7-30.7s27.7,13.77,27.7,30.7ZM40.17,44a39,39,0,1,1,78,0V59.2h-6.6V47.7c0-19.69-14.67-35.7-32.7-35.7s-32.7,16.01-32.7,35.7V59.2h-6ZM96.56,99.2a4,4,0,1,1,4-4A4,4,0,0,1,96.56,99.2Zm0,24.3a4,4,0,1,1,4-4A4,4,0,0,1,96.56,123.5Zm0,23.7a4,4,0,1,1,4-4A4,4,0,0,1,96.56,147.2Zm89.1,5.5a4,4,0,1,1,4-4A4,4,0,0,1,185.66,152.7Z" fill="rgba(0,0,0,0)"/>
      </g>
      <g id="Group_249" data-name="Group 249">
        <path id="Path_275" data-name="Path 275" d="M3.45,102.61h4.8V87.43H.92v3.3H3.45Z" fill="#fff"/>
        <path id="Path_276" data-name="Path 276" d="M3.45,102.61h4.8V87.43H.92v3.3H3.45Z" fill="rgba(0,0,0,0)"/>
      </g>
      <g id="Group_250" data-name="Group 250">
        <path id="Path_277" data-name="Path 277" d="M17.75,102.88c4.8,0,6.78-3.76,6.78-7.83s-1.98-7.83-6.78-7.83S11,90.98,11,95.05,12.98,102.88,17.75,102.88Zm0-11.53c1.5,0,1.94,1.65,1.94,3.63s-.44,3.67-1.94,3.67-1.91-1.69-1.91-3.67S16.28,91.35,17.75,91.35Z" fill="#fff"/>
        <path id="Path_278" data-name="Path 278" d="M17.75,102.88c4.8,0,6.78-3.76,6.78-7.83s-1.98-7.83-6.78-7.83S11,90.98,11,95.05,12.98,102.88,17.75,102.88Zm0-11.53c1.5,0,1.94,1.65,1.94,3.63s-.44,3.67-1.94,3.67-1.91-1.69-1.91-3.67S16.28,91.35,17.75,91.35Z" fill="rgba(0,0,0,0)"/>
      </g>
      <g id="Group_251" data-name="Group 251">
        <path id="Path_279" data-name="Path 279" d="M32.38,87.21c-4.77,0-6.75,3.76-6.75,7.83s1.98,7.83,6.75,7.83,6.78-3.76,6.78-7.83S37.18,87.21,32.38,87.21Zm0,11.44c-1.47,0-1.91-1.69-1.91-3.67s.44-3.63,1.91-3.63,1.94,1.65,1.94,3.63S33.88,98.65,32.38,98.65Z" fill="#fff"/>
        <path id="Path_280" data-name="Path 280" d="M32.38,87.21c-4.77,0-6.75,3.76-6.75,7.83s1.98,7.83,6.75,7.83,6.78-3.76,6.78-7.83S37.18,87.21,32.38,87.21Zm0,11.44c-1.47,0-1.91-1.69-1.91-3.67s.44-3.63,1.91-3.63,1.94,1.65,1.94,3.63S33.88,98.65,32.38,98.65Z" fill="rgba(0,0,0,0)"/>
      </g>
      <g id="Group_252" data-name="Group 252">
        <path id="Path_281" data-name="Path 281" d="M48.51,102.61V87.43H41.18v3.3h2.53v11.88Z" fill="#fff"/>
        <path id="Path_282" data-name="Path 282" d="M48.51,102.61V87.43H41.18v3.3h2.53v11.88Z" fill="rgba(0,0,0,0)"/>
      </g>
      <g id="Group_253" data-name="Group 253">
        <path id="Path_283" data-name="Path 283" d="M6.75,125.88c4.8,0,6.78-3.76,6.78-7.83s-1.98-7.83-6.78-7.83S0,113.98,0,118.05,1.98,125.88,6.75,125.88Zm0-11.53c1.5,0,1.94,1.65,1.94,3.63s-.44,3.67-1.94,3.67-1.91-1.69-1.91-3.67S5.28,114.35,6.75,114.35Z" fill="#fff"/>
        <path id="Path_284" data-name="Path 284" d="M6.75,125.88c4.8,0,6.78-3.76,6.78-7.83s-1.98-7.83-6.78-7.83S0,113.98,0,118.05,1.98,125.88,6.75,125.88Zm0-11.53c1.5,0,1.94,1.65,1.94,3.63s-.44,3.67-1.94,3.67-1.91-1.69-1.91-3.67S5.28,114.35,6.75,114.35Z" fill="rgba(0,0,0,0)"/>
      </g>
      <g id="Group_254" data-name="Group 254">
        <path id="Path_285" data-name="Path 285" d="M22.88,125.61V110.43H15.55v3.3h2.53v11.88Z" fill="#fff"/>
        <path id="Path_286" data-name="Path 286" d="M22.88,125.61V110.43H15.55v3.3h2.53v11.88Z" fill="rgba(0,0,0,0)"/>
      </g>
      <g id="Group_255" data-name="Group 255">
        <path id="Path_287" data-name="Path 287" d="M33.88,110.43H26.55v3.3h2.53v11.88h4.8Z" fill="#fff"/>
        <path id="Path_288" data-name="Path 288" d="M33.88,110.43H26.55v3.3h2.53v11.88h4.8Z" fill="rgba(0,0,0,0)"/>
      </g>
      <g id="Group_256" data-name="Group 256">
        <path id="Path_289" data-name="Path 289" d="M36.63,118.04c0,4.07,1.98,7.83,6.75,7.83s6.78-3.76,6.78-7.83-1.98-7.83-6.78-7.83S36.63,113.97,36.63,118.04Zm6.75-3.69c1.5,0,1.94,1.65,1.94,3.63s-.44,3.67-1.94,3.67-1.91-1.69-1.91-3.67S41.91,114.35,43.38,114.35Z" fill="#fff"/>
        <path id="Path_290" data-name="Path 290" d="M36.63,118.04c0,4.07,1.98,7.83,6.75,7.83s6.78-3.76,6.78-7.83-1.98-7.83-6.78-7.83S36.63,113.97,36.63,118.04Zm6.75-3.69c1.5,0,1.94,1.65,1.94,3.63s-.44,3.67-1.94,3.67-1.91-1.69-1.91-3.67S41.91,114.35,43.38,114.35Z" fill="rgba(0,0,0,0)"/>
      </g>
      <g id="Group_257" data-name="Group 257">
        <path id="Path_291" data-name="Path 291" d="M.92,136.73H3.45v11.88h4.8V133.43H.92Z" fill="#fff"/>
        <path id="Path_292" data-name="Path 292" d="M.92,136.73H3.45v11.88h4.8V133.43H.92Z" fill="rgba(0,0,0,0)"/>
      </g>
      <g id="Group_258" data-name="Group 258">
        <path id="Path_293" data-name="Path 293" d="M24.53,141.04c0-4.07-1.98-7.83-6.78-7.83S11,136.97,11,141.04s1.98,7.83,6.75,7.83S24.53,145.11,24.53,141.04Zm-6.78,3.61c-1.47,0-1.91-1.69-1.91-3.67s.44-3.63,1.91-3.63,1.94,1.65,1.94,3.63S19.25,144.65,17.75,144.65Z" fill="#fff"/>
        <path id="Path_294" data-name="Path 294" d="M24.53,141.04c0-4.07-1.98-7.83-6.78-7.83S11,136.97,11,141.04s1.98,7.83,6.75,7.83S24.53,145.11,24.53,141.04Zm-6.78,3.61c-1.47,0-1.91-1.69-1.91-3.67s.44-3.63,1.91-3.63,1.94,1.65,1.94,3.63S19.25,144.65,17.75,144.65Z" fill="rgba(0,0,0,0)"/>
      </g>
      <g id="Group_259" data-name="Group 259">
        <path id="Path_295" data-name="Path 295" d="M33.88,148.61V133.43H26.55v3.3h2.53v11.88Z" fill="#fff"/>
        <path id="Path_296" data-name="Path 296" d="M33.88,148.61V133.43H26.55v3.3h2.53v11.88Z" fill="rgba(0,0,0,0)"/>
      </g>
      <g id="Group_260" data-name="Group 260">
        <path id="Path_297" data-name="Path 297" d="M43.38,133.21c-4.77,0-6.75,3.76-6.75,7.83s1.98,7.83,6.75,7.83,6.78-3.76,6.78-7.83S48.18,133.21,43.38,133.21Zm0,11.44c-1.47,0-1.91-1.69-1.91-3.67s.44-3.63,1.91-3.63,1.94,1.65,1.94,3.63S44.88,144.65,43.38,144.65Z" fill="#fff"/>
        <path id="Path_298" data-name="Path 298" d="M43.38,133.21c-4.77,0-6.75,3.76-6.75,7.83s1.98,7.83,6.75,7.83,6.78-3.76,6.78-7.83S48.18,133.21,43.38,133.21Zm0,11.44c-1.47,0-1.91-1.69-1.91-3.67s.44-3.63,1.91-3.63,1.94,1.65,1.94,3.63S44.88,144.65,43.38,144.65Z" fill="rgba(0,0,0,0)"/>
      </g>
    </g>
  </g>
</svg>
