<svg xmlns="http://www.w3.org/2000/svg" width="361.958" height="114.673" viewBox="0 0 361.958 114.673">
  <g id="logo" transform="translate(-92.651 -31.303)">
    <g id="Group_44" data-name="Group 44" transform="translate(92.9 31.553)">
      <g id="Group_40" data-name="Group 40" transform="translate(0 0)">
        <path id="Path_57" data-name="Path 57" d="M-18465.473-3588.065h76.5v76.856l-38.016,37.317h-75.828v-77.191Zm72.529,3.972h-70.893l-35.006,34.667v71.563h70.223l35.676-35.012Z" transform="translate(18502.814 3588.065)" fill="#0a0a0a" stroke="#fff" stroke-width="0.5"/>
        <path id="Rectangle_14" data-name="Rectangle 14" d="M3.973,3.973V36.892H35.757V3.973H3.973M0,0H39.73V40.865H0Z" transform="translate(36.783 36.929)" fill="#0a0a0a" stroke="#fff" stroke-width="0.5"/>
        <path id="Path_58" data-name="Path 58" d="M-18434.08-3189.878h-3.979v-37.752h3.979Z" transform="translate(18474.814 3227.876)" fill="#0a0a0a" stroke="#fff" stroke-width="0.5"/>
        <path id="Path_59" data-name="Path 59" d="M-18434.08-3189.878h-3.979v-37.752h3.979Z" transform="translate(18510.566 3302.067)" fill="#0a0a0a" stroke="#fff" stroke-width="0.5"/>
      </g>
      <path id="Path_269" data-name="Path 269" d="M4.374,0V-38.88H8.046V-3.132H28.89V0ZM46.656.756a14.56,14.56,0,0,1-5.049-.972A11.308,11.308,0,0,1,37.5-2.97a13.221,13.221,0,0,1-2.781-4.59A18.371,18.371,0,0,1,33.7-13.986a19.739,19.739,0,0,1,.81-5.751,13.579,13.579,0,0,1,2.43-4.671,11.533,11.533,0,0,1,4.05-3.159,13.018,13.018,0,0,1,5.67-1.161,13.152,13.152,0,0,1,5.724,1.161,11.674,11.674,0,0,1,4.05,3.132,12.927,12.927,0,0,1,2.4,4.671,20.656,20.656,0,0,1,.783,5.778A18.715,18.715,0,0,1,58.7-7.938a13.616,13.616,0,0,1-2.619,4.644,11.532,11.532,0,0,1-4.1,3A13.111,13.111,0,0,1,46.656.756Zm9.5-14.742a19.1,19.1,0,0,0-.54-4.644,11,11,0,0,0-1.674-3.753,8.041,8.041,0,0,0-2.916-2.511,9.471,9.471,0,0,0-4.374-.918,8.866,8.866,0,0,0-4.347,1,8.508,8.508,0,0,0-2.943,2.646,11.635,11.635,0,0,0-1.674,3.78,17.863,17.863,0,0,0-.54,4.4,17.448,17.448,0,0,0,.621,4.779,11.2,11.2,0,0,0,1.809,3.753,8.123,8.123,0,0,0,2.97,2.43,9.3,9.3,0,0,0,4.1.864,8.866,8.866,0,0,0,4.347-1,8.408,8.408,0,0,0,2.943-2.673,11.986,11.986,0,0,0,1.674-3.78A17.542,17.542,0,0,0,56.16-13.986ZM86.994-19.17a9.408,9.408,0,0,0-2.97-4.887,8.068,8.068,0,0,0-5.346-1.755,8.411,8.411,0,0,0-4.266,1.026A8.635,8.635,0,0,0,71.5-22.059a12.286,12.286,0,0,0-1.674,3.834,17.429,17.429,0,0,0-.54,4.293,18.187,18.187,0,0,0,.513,4.32,11.547,11.547,0,0,0,1.647,3.78,8.481,8.481,0,0,0,2.916,2.673,8.711,8.711,0,0,0,4.32,1,8.272,8.272,0,0,0,5.805-2,9.29,9.29,0,0,0,2.781-5.508H90.72a16.269,16.269,0,0,1-1.377,4.239,11.187,11.187,0,0,1-2.43,3.294A10.444,10.444,0,0,1,83.376,0a13.539,13.539,0,0,1-4.7.756A13.56,13.56,0,0,1,72.9-.378a10.9,10.9,0,0,1-4-3.1,13.08,13.08,0,0,1-2.322-4.671,21.347,21.347,0,0,1-.756-5.778,18.594,18.594,0,0,1,.837-5.589,14.571,14.571,0,0,1,2.457-4.725,11.888,11.888,0,0,1,4.023-3.267,12.1,12.1,0,0,1,5.535-1.215,12.473,12.473,0,0,1,7.857,2.322q3,2.322,3.753,7.236ZM98.6,0V-38.88h3.24v24.192L115.56-27.972h4.428l-10.476,10.1L121.23,0h-3.618L107.136-15.606l-5.292,5.022V0Zm47.79-27.972h3.24V0h-3.24V-3.888q-.648.756-1.458,1.566a11.068,11.068,0,0,1-1.863,1.485A10.692,10.692,0,0,1,140.616.3a10.428,10.428,0,0,1-3.24.459,12.32,12.32,0,0,1-4.7-.783,7.69,7.69,0,0,1-3.051-2.187,8.668,8.668,0,0,1-1.674-3.267,15.323,15.323,0,0,1-.513-4.077V-27.972h3.24v18.36a8.17,8.17,0,0,0,1.674,5.535q1.674,1.917,5.508,1.917a8.033,8.033,0,0,0,3.591-.783,7.5,7.5,0,0,0,2.673-2.187A10.433,10.433,0,0,0,145.8-8.478a14.547,14.547,0,0,0,.594-4.266ZM159.57,0V-38.88h3.24V0ZM191-14.688a15.886,15.886,0,0,1-4.158,1.134q-2.106.27-4.212.432a11.873,11.873,0,0,0-5.805,1.674,4.8,4.8,0,0,0-2.079,4.266,4.63,4.63,0,0,0,.513,2.241,4.734,4.734,0,0,0,1.35,1.566,5.708,5.708,0,0,0,1.944.918,8.612,8.612,0,0,0,2.241.3,14.709,14.709,0,0,0,3.78-.486,10.221,10.221,0,0,0,3.267-1.485,7.577,7.577,0,0,0,2.295-2.538A7.328,7.328,0,0,0,191-10.314Zm-5.454-1.62q.918-.108,2.187-.324a8.259,8.259,0,0,0,2.079-.594,1.72,1.72,0,0,0,1-1.269A7.976,7.976,0,0,0,191-20.142a5.521,5.521,0,0,0-1.593-4.077q-1.593-1.593-5.373-1.593a14.887,14.887,0,0,0-3.078.3,6.7,6.7,0,0,0-2.457,1.026,5.66,5.66,0,0,0-1.728,1.944,8.251,8.251,0,0,0-.891,3.051h-3.294a10.007,10.007,0,0,1,1.134-4.239,8.6,8.6,0,0,1,2.511-2.862,10.416,10.416,0,0,1,3.564-1.62,17.426,17.426,0,0,1,4.293-.513,16.547,16.547,0,0,1,3.969.459,9.2,9.2,0,0,1,3.24,1.458,6.771,6.771,0,0,1,2.16,2.673,9.649,9.649,0,0,1,.783,4.1V-4.806q0,1.89.675,2.4t2.727-.243V-.108q-.378.108-1.107.324A5.022,5.022,0,0,1,195.1.432,6.464,6.464,0,0,1,193.644.27a2.5,2.5,0,0,1-1.3-.513,3.162,3.162,0,0,1-.783-.972,4.029,4.029,0,0,1-.4-1.242,9.057,9.057,0,0,1-.108-1.431,14.069,14.069,0,0,1-4.7,3.456A13.812,13.812,0,0,1,180.63.756,12.812,12.812,0,0,1,177.093.27a8.559,8.559,0,0,1-3-1.512,7.509,7.509,0,0,1-2.052-2.511,7.71,7.71,0,0,1-.756-3.537q0-7.128,9.774-8.424ZM207.738,0H204.5V-27.972h3.24v5.238h.108a9.378,9.378,0,0,1,3.483-4.671,10.6,10.6,0,0,1,5.643-1.323v3.51a9.457,9.457,0,0,0-4.536.864A7.459,7.459,0,0,0,209.6-21.87a9.838,9.838,0,0,0-1.458,3.7,23.843,23.843,0,0,0-.405,4.455Z" transform="translate(144.737 72.087)" fill="#0a0a0a"/>
    </g>
  </g>
</svg>
