<svg xmlns="http://www.w3.org/2000/svg" xmlns:xlink="http://www.w3.org/1999/xlink" width="200" height="200" viewBox="0 0 200 200">
  <defs>
    <clipPath id="clip-path">
      <rect id="Rectangle_126" data-name="Rectangle 126" width="200" height="200" transform="translate(5011 4718)" fill="#fff" stroke="#707070" stroke-width="1"/>
    </clipPath>
  </defs>
  <g id="nft_marketplace" transform="translate(-5011 -4718)" clip-path="url(#clip-path)">
    <g id="Layer_1" transform="translate(5041.862 4736.65)">
      <g id="Group_261" data-name="Group 261">
        <path id="Path_299" data-name="Path 299" d="M138.2,95.7c-.1-1.6-1-2.3-2.6-2.4h-2.8c0-.6-.1-1-.1-1.5,0-13.8-.1-27.6,0-41.4a3.255,3.255,0,0,1,1-2.3,11.621,11.621,0,0,0,3.9-6.6,17.241,17.241,0,0,0-.4-10.3c-3.7-9.6-7.2-19.3-10.8-29A3.3,3.3,0,0,0,122.9,0H15.9c-2.8,0-3.3.3-4.2,2.9C9.5,9,7.3,15.1,5.1,21.1,3.5,25.5,1.7,29.9,0,34.3v3.5c.4,1.8.5,3.7,1.3,5.3a54.08,54.08,0,0,0,3.6,5.2,3.722,3.722,0,0,1,.7,2V77.2h0V93.3c-2.1.3-4.8-.7-5.6,2.3v10.5c.8,3,3.3,2.1,5.6,2.5v50.7c0,1.5.2,2.7,1.7,3.4H131.1a3.018,3.018,0,0,0,1.7-3.1V133.7h0V108.3h2.9a2.194,2.194,0,0,0,2.5-2.4Q138.35,100.8,138.2,95.7ZM111.8,4.8h9.3a1.785,1.785,0,0,1,1.2.9c.7,1.5,1.1,3,1.7,4.5,2.5,6.7,5.1,13.5,7.6,20.2a14.237,14.237,0,0,0,.5,1.6H111.8ZM133,37.1a9.643,9.643,0,0,1-3.8,8.8c-4.1,3.1-8.4,2.9-12.8.7-2.9-1.6-4.9-5.6-4.7-9.6C118.9,37,125.9,37,133,37.1Zm-5.1,15.1V93.3h-5.6V53.1C124.2,52.8,126,52.5,127.9,52.2ZM85.2,4.9h21.3V32H85.2Zm21.4,32c.1,4-1.3,7.3-4.6,9.4a10.9,10.9,0,0,1-12,.2c-3.5-2-5-5.4-4.9-9.5C92.3,37,99.3,37,106.6,36.9ZM58.5,4.9H79.8V32.1H58.5ZM79.9,37a9.738,9.738,0,0,1-4.4,9.2,10.718,10.718,0,0,1-12,.4c-3.6-2-5.2-5.4-5.1-9.6ZM31.9,4.9H53.2V32H31.9ZM53.3,37c.2,4.1-1.3,7.3-4.6,9.4a10.814,10.814,0,0,1-11.6.4c-3.7-2.1-5.3-5.5-5.3-9.8ZM29.1,45.9c8.6,10.3,21.2,8.1,26.8-.2,3.3,4.6,7.7,7.1,13.3,7.1a15.731,15.731,0,0,0,13.4-7.2A15.292,15.292,0,0,0,96,52.8c5.5,0,9.9-2.7,13.3-7a14.676,14.676,0,0,0,8.1,6.2V62.5H91.73a10.378,10.378,0,1,0,.11,5H117.4V77.9H52.03a10.378,10.378,0,1,0,.11,5h65.27V93.2h-5.7L26.81,93h-5.8V53.4a1.649,1.649,0,0,1,1.3-1.9,14.172,14.172,0,0,0,6.8-5.6Zm58,19.3a5.4,5.4,0,1,1-5.4-5.4A5.4,5.4,0,0,1,87.1,65.2ZM47.4,80.6A5.4,5.4,0,1,1,42,75.2,5.4,5.4,0,0,1,47.4,80.6ZM6.8,30.5c1.8-5,3.5-10,5.4-15,1.2-3.3,2.6-6.6,3.9-9.8a1.785,1.785,0,0,1,1.2-.9h9.3V32.1c-6.8,0-13.4,0-20.3-.1C6.5,31.4,6.6,31,6.8,30.5ZM5.3,37H26.7c.1,4.1-1.3,7.4-4.7,9.4a10.7,10.7,0,0,1-12.1,0C6.6,44.2,5.2,41,5.3,37Zm5,38.3V52.1c2,.3,3.8.6,5.7.9V93.2H10.4c0-.5-.1-1-.1-1.6V75.3Zm16.3,82.5H10.5V108.5H26.6Zm26.7-.1H31.9V108.5H53.2v10.6H47.6c-3.9,0-6.1,2.2-6.1,6.1v15.7c0,3.7,2.2,5.9,5.9,6h5.9Zm37-34c1.3,0,1.8.4,1.8,1.8-.1,5-.1,9.9,0,14.8.1,1.4-.5,1.8-1.8,1.8H69c-6.9,0-13.8,0-20.7-.1-1.5,0-2-.4-2-2q.15-7.2,0-14.4c-.1-1.3.2-1.9,1.8-1.9ZM58.5,119V108.5H79.9V119Zm21.3,38.7H58.5V147H79.8Zm5.4.1V147h4c1.1-.1,2.2,0,3.2-.2a5.353,5.353,0,0,0,4.5-5.5V124.8a5.406,5.406,0,0,0-5.7-5.7h-6V108.5h21.3c0,16.4,0,32.8.1,49.3Zm42.8,0H111.8V108.5h16.1c0,.5.1,1,.1,1.6v24.8h0v22.89Zm5-54.2H5.3V98.2h98.4c.4,0,.82.03,1.22,0H133Z" fill="#fff"/>
        <path id="Path_300" data-name="Path 300" d="M138.2,95.7c-.1-1.6-1-2.3-2.6-2.4h-2.8c0-.6-.1-1-.1-1.5,0-13.8-.1-27.6,0-41.4a3.255,3.255,0,0,1,1-2.3,11.621,11.621,0,0,0,3.9-6.6,17.241,17.241,0,0,0-.4-10.3c-3.7-9.6-7.2-19.3-10.8-29A3.3,3.3,0,0,0,122.9,0H15.9c-2.8,0-3.3.3-4.2,2.9C9.5,9,7.3,15.1,5.1,21.1,3.5,25.5,1.7,29.9,0,34.3v3.5c.4,1.8.5,3.7,1.3,5.3a54.08,54.08,0,0,0,3.6,5.2,3.722,3.722,0,0,1,.7,2V77.2h0V93.3c-2.1.3-4.8-.7-5.6,2.3v10.5c.8,3,3.3,2.1,5.6,2.5v50.7c0,1.5.2,2.7,1.7,3.4H131.1a3.018,3.018,0,0,0,1.7-3.1V133.7h0V108.3h2.9a2.194,2.194,0,0,0,2.5-2.4Q138.35,100.8,138.2,95.7ZM111.8,4.8h9.3a1.785,1.785,0,0,1,1.2.9c.7,1.5,1.1,3,1.7,4.5,2.5,6.7,5.1,13.5,7.6,20.2a14.237,14.237,0,0,0,.5,1.6H111.8ZM133,37.1a9.643,9.643,0,0,1-3.8,8.8c-4.1,3.1-8.4,2.9-12.8.7-2.9-1.6-4.9-5.6-4.7-9.6C118.9,37,125.9,37,133,37.1Zm-5.1,15.1V93.3h-5.6V53.1C124.2,52.8,126,52.5,127.9,52.2ZM85.2,4.9h21.3V32H85.2Zm21.4,32c.1,4-1.3,7.3-4.6,9.4a10.9,10.9,0,0,1-12,.2c-3.5-2-5-5.4-4.9-9.5C92.3,37,99.3,37,106.6,36.9ZM58.5,4.9H79.8V32.1H58.5ZM79.9,37a9.738,9.738,0,0,1-4.4,9.2,10.718,10.718,0,0,1-12,.4c-3.6-2-5.2-5.4-5.1-9.6ZM31.9,4.9H53.2V32H31.9ZM53.3,37c.2,4.1-1.3,7.3-4.6,9.4a10.814,10.814,0,0,1-11.6.4c-3.7-2.1-5.3-5.5-5.3-9.8ZM29.1,45.9c8.6,10.3,21.2,8.1,26.8-.2,3.3,4.6,7.7,7.1,13.3,7.1a15.731,15.731,0,0,0,13.4-7.2A15.292,15.292,0,0,0,96,52.8c5.5,0,9.9-2.7,13.3-7a14.676,14.676,0,0,0,8.1,6.2V62.5H91.73a10.378,10.378,0,1,0,.11,5H117.4V77.9H52.03a10.378,10.378,0,1,0,.11,5h65.27V93.2h-5.7L26.81,93h-5.8V53.4a1.649,1.649,0,0,1,1.3-1.9,14.172,14.172,0,0,0,6.8-5.6Zm58,19.3a5.4,5.4,0,1,1-5.4-5.4A5.4,5.4,0,0,1,87.1,65.2ZM47.4,80.6A5.4,5.4,0,1,1,42,75.2,5.4,5.4,0,0,1,47.4,80.6ZM6.8,30.5c1.8-5,3.5-10,5.4-15,1.2-3.3,2.6-6.6,3.9-9.8a1.785,1.785,0,0,1,1.2-.9h9.3V32.1c-6.8,0-13.4,0-20.3-.1C6.5,31.4,6.6,31,6.8,30.5ZM5.3,37H26.7c.1,4.1-1.3,7.4-4.7,9.4a10.7,10.7,0,0,1-12.1,0C6.6,44.2,5.2,41,5.3,37Zm5,38.3V52.1c2,.3,3.8.6,5.7.9V93.2H10.4c0-.5-.1-1-.1-1.6V75.3Zm16.3,82.5H10.5V108.5H26.6Zm26.7-.1H31.9V108.5H53.2v10.6H47.6c-3.9,0-6.1,2.2-6.1,6.1v15.7c0,3.7,2.2,5.9,5.9,6h5.9Zm37-34c1.3,0,1.8.4,1.8,1.8-.1,5-.1,9.9,0,14.8.1,1.4-.5,1.8-1.8,1.8H69c-6.9,0-13.8,0-20.7-.1-1.5,0-2-.4-2-2q.15-7.2,0-14.4c-.1-1.3.2-1.9,1.8-1.9ZM58.5,119V108.5H79.9V119Zm21.3,38.7H58.5V147H79.8Zm5.4.1V147h4c1.1-.1,2.2,0,3.2-.2a5.353,5.353,0,0,0,4.5-5.5V124.8a5.406,5.406,0,0,0-5.7-5.7h-6V108.5h21.3c0,16.4,0,32.8.1,49.3Zm42.8,0H111.8V108.5h16.1c0,.5.1,1,.1,1.6v24.8h0v22.89Zm5-54.2H5.3V98.2h98.4c.4,0,.82.03,1.22,0H133Z" fill="rgba(0,0,0,0)"/>
      </g>
    </g>
  </g>
</svg>
