<svg xmlns="http://www.w3.org/2000/svg" xmlns:xlink="http://www.w3.org/1999/xlink" width="200" height="200" viewBox="0 0 200 200">
  <defs>
    <clipPath id="clip-path">
      <rect id="Rectangle_129" data-name="Rectangle 129" width="200" height="200" transform="translate(5248 4725)" fill="#fff" stroke="#707070" stroke-width="1"/>
    </clipPath>
  </defs>
  <g id="secure_working" transform="translate(-5248 -4725)" clip-path="url(#clip-path)">
    <g id="Layer_1" transform="translate(5251.275 4779.286)">
      <g id="Group_265" data-name="Group 265">
        <path id="Path_307" data-name="Path 307" d="M138.328,71.168a78.987,78.987,0,0,0-1.213-11.161H193.45l-.673-2.735C185.936,29.34,162.888,9.824,136.726,9.824a52.68,52.68,0,0,0-24.676,6.125A65.877,65.877,0,0,0,69.2,0C31.916,0,1.558,31.261.089,71.168L0,73.461H138.416ZM124.361,21.852l8.886,1.885-.115,5.505L127.6,32.916a77.281,77.281,0,0,0-6.16-8.8l2.93-2.266ZM111.368,43.59l-11.7-12.745,1.062-9.3,11.692.717c.549.531,1.1,1.053,1.629,1.6a68.871,68.871,0,0,1,9.2,11.878l-.814,9.444Zm-7.957,16.976-14.524.221-9.3-14.037,4.886-11.984,11.993-.885L107.8,46.227,103.42,60.556ZM61.521,44.785l-3.77-11.656,10.762-7.2,11.674,7.585L75.594,44.785Zm65.557-1.938A72.337,72.337,0,0,1,131.982,57L126.7,47.236l.381-4.381Zm2.7-6.063,5.585-3.708,7.435,4.594-2.567,6.974-6.815.115a77.307,77.307,0,0,0-3.646-7.966Zm10.833,12.267,4.372,6.532h-8.346c-.062-.478-.124-.965-.195-1.425l-.044-.195q-.637-2.443-1.407-4.815Zm3.638-2.522,2.841-7.709,7.974-.673,8.8,9.4-2.77,8.045h-10.78l-6.063-9.054Zm23.7,2.726,7.178.195,3.77,6.142H165.765l2.177-6.328ZM174.279,45l-6.912-.186-9.09-9.709.841-6.107,6.895-.124,8.567,9.957-.292,6.16Zm-9.214-20.534-7.24.133-9.444-6.116.1-2.753a50.629,50.629,0,0,1,16.728,7.7l-.142,1.044ZM145.691,22l9.107,5.9-.805,5.877-7.948.673-8.479-5.24.115-5.487,8.01-1.735ZM99.429,17.029,85.94,9.169V6.788a62.363,62.363,0,0,1,21.012,10.7l-7.514-.46Zm-16.1-4.257,13.081,7.62-1.044,9.134L83.515,30.4,70.744,22.1l.124-6.895,12.471-2.416Zm-17.02,9.311L54.476,30l-12.453-.15-1.23-9.054,12.913-7.762,12.718,2.195L66.3,22.082ZM51.06,9.461,37.722,17.48l-6.957.487a62.67,62.67,0,0,1,20.3-10.789V9.453Zm-10.01,24.8,12.471.15,3.965,12.267L48.7,60.291l-15.144.221L29.234,47.1,41.058,34.261ZM33.243,64.946l15.179-.221,1.744,4.319H30.924l2.31-4.089ZM52.4,62.725,61.123,49.21H75.9l9.258,13.966-2.894,5.859H54.954L52.4,62.725Zm36.7,2.487,14.7-.221,2.363,4.054H87.2l1.894-3.824Zm18.356-2.735,4.381-14.347,11.178,1.611,10.444,19.295h-22.18l-3.832-6.558ZM184.1,55.582l-5.47-8.895.239-5.045,4.116,2.177a62.907,62.907,0,0,1,4.762,11.763h-3.655ZM178.333,36.35l-.1-.053L172,29.057A58.272,58.272,0,0,1,178.333,36.35ZM144.081,14.825l-.106,3.027L135.5,19.693l-9.461-2.009v-2.23a48.746,48.746,0,0,1,10.709-1.2A48.073,48.073,0,0,1,144.081,14.825ZM121.6,16.684v1.708l-3.062,2.372c-.124-.133-.239-.266-.354-.4l-.23-.212c-.549-.451-1.106-.912-1.655-1.372a47.759,47.759,0,0,1,5.3-2.089Zm-40.094-11V8.621l-12.86,2.5L55.485,8.851V6a60.67,60.67,0,0,1,26.021-.319ZM25.871,22.251l.035.487,10.585-.743,1.266,9.3L25.667,44.422,14.595,45.528l-.611-7.948A68.659,68.659,0,0,1,25.871,22.233ZM10.417,48.891,6.78,55.5a71.932,71.932,0,0,1,3.372-10.072ZM4.673,68.5h0l10.2-18.542,10.285-1.027L29.535,62.5l-3.691,6.532H4.629C4.638,68.858,4.664,68.681,4.673,68.5Z" fill="#fff"/>
        <path id="Path_308" data-name="Path 308" d="M138.328,71.168a78.987,78.987,0,0,0-1.213-11.161H193.45l-.673-2.735C185.936,29.34,162.888,9.824,136.726,9.824a52.68,52.68,0,0,0-24.676,6.125A65.877,65.877,0,0,0,69.2,0C31.916,0,1.558,31.261.089,71.168L0,73.461H138.416ZM124.361,21.852l8.886,1.885-.115,5.505L127.6,32.916a77.281,77.281,0,0,0-6.16-8.8l2.93-2.266ZM111.368,43.59l-11.7-12.745,1.062-9.3,11.692.717c.549.531,1.1,1.053,1.629,1.6a68.871,68.871,0,0,1,9.2,11.878l-.814,9.444Zm-7.957,16.976-14.524.221-9.3-14.037,4.886-11.984,11.993-.885L107.8,46.227,103.42,60.556ZM61.521,44.785l-3.77-11.656,10.762-7.2,11.674,7.585L75.594,44.785Zm65.557-1.938A72.337,72.337,0,0,1,131.982,57L126.7,47.236l.381-4.381Zm2.7-6.063,5.585-3.708,7.435,4.594-2.567,6.974-6.815.115a77.307,77.307,0,0,0-3.646-7.966Zm10.833,12.267,4.372,6.532h-8.346c-.062-.478-.124-.965-.195-1.425l-.044-.195q-.637-2.443-1.407-4.815Zm3.638-2.522,2.841-7.709,7.974-.673,8.8,9.4-2.77,8.045h-10.78l-6.063-9.054Zm23.7,2.726,7.178.195,3.77,6.142H165.765l2.177-6.328ZM174.279,45l-6.912-.186-9.09-9.709.841-6.107,6.895-.124,8.567,9.957-.292,6.16Zm-9.214-20.534-7.24.133-9.444-6.116.1-2.753a50.629,50.629,0,0,1,16.728,7.7l-.142,1.044ZM145.691,22l9.107,5.9-.805,5.877-7.948.673-8.479-5.24.115-5.487,8.01-1.735ZM99.429,17.029,85.94,9.169V6.788a62.363,62.363,0,0,1,21.012,10.7l-7.514-.46Zm-16.1-4.257,13.081,7.62-1.044,9.134L83.515,30.4,70.744,22.1l.124-6.895,12.471-2.416Zm-17.02,9.311L54.476,30l-12.453-.15-1.23-9.054,12.913-7.762,12.718,2.195L66.3,22.082ZM51.06,9.461,37.722,17.48l-6.957.487a62.67,62.67,0,0,1,20.3-10.789V9.453Zm-10.01,24.8,12.471.15,3.965,12.267L48.7,60.291l-15.144.221L29.234,47.1,41.058,34.261ZM33.243,64.946l15.179-.221,1.744,4.319H30.924l2.31-4.089ZM52.4,62.725,61.123,49.21H75.9l9.258,13.966-2.894,5.859H54.954L52.4,62.725Zm36.7,2.487,14.7-.221,2.363,4.054H87.2l1.894-3.824Zm18.356-2.735,4.381-14.347,11.178,1.611,10.444,19.295h-22.18l-3.832-6.558ZM184.1,55.582l-5.47-8.895.239-5.045,4.116,2.177a62.907,62.907,0,0,1,4.762,11.763h-3.655ZM178.333,36.35l-.1-.053L172,29.057A58.272,58.272,0,0,1,178.333,36.35ZM144.081,14.825l-.106,3.027L135.5,19.693l-9.461-2.009v-2.23a48.746,48.746,0,0,1,10.709-1.2A48.073,48.073,0,0,1,144.081,14.825ZM121.6,16.684v1.708l-3.062,2.372c-.124-.133-.239-.266-.354-.4l-.23-.212c-.549-.451-1.106-.912-1.655-1.372a47.759,47.759,0,0,1,5.3-2.089Zm-40.094-11V8.621l-12.86,2.5L55.485,8.851V6a60.67,60.67,0,0,1,26.021-.319ZM25.871,22.251l.035.487,10.585-.743,1.266,9.3L25.667,44.422,14.595,45.528l-.611-7.948A68.659,68.659,0,0,1,25.871,22.233ZM10.417,48.891,6.78,55.5a71.932,71.932,0,0,1,3.372-10.072ZM4.673,68.5h0l10.2-18.542,10.285-1.027L29.535,62.5l-3.691,6.532H4.629C4.638,68.858,4.664,68.681,4.673,68.5Z" fill="rgba(0,0,0,0)"/>
      </g>
      <g id="Group_266" data-name="Group 266" transform="translate(0.08 77.355)">
        <path id="Path_309" data-name="Path 309" d="M.09,101.473H167L180.166,87.4H.09Zm4.425-9.647H169.97l-4.886,5.222H4.515Z" transform="translate(-0.09 -87.4)" fill="#fff"/>
        <path id="Path_310" data-name="Path 310" d="M.09,101.473H167L180.166,87.4H.09Zm4.425-9.647H169.97l-4.886,5.222H4.515Z" transform="translate(-0.09 -87.4)" fill="rgba(0,0,0,0)"/>
      </g>
    </g>
  </g>
</svg>
