<svg xmlns="http://www.w3.org/2000/svg" xmlns:xlink="http://www.w3.org/1999/xlink" width="200" height="200" viewBox="0 0 200 200">
  <defs>
    <clipPath id="clip-path">
      <rect id="Rectangle_127" data-name="Rectangle 127" width="200" height="200" transform="translate(5048 4696)" fill="#fff" stroke="#707070" stroke-width="1"/>
    </clipPath>
  </defs>
  <g id="secure_filesystem" transform="translate(-5048 -4696)" clip-path="url(#clip-path)">
    <g id="Layer_1" transform="translate(5065 4720.1)">
      <g id="Group_262" data-name="Group 262">
        <path id="Path_301" data-name="Path 301" d="M75.2,14V0H28.16L0,28.16V151.4H138.04L166,123.44V14Zm60.76,132.4H5V75.73L29.74,50.7H161v70.66ZM161,45.7H27.66L5,68.62V59.93c6.65-6.73,13.39-13.48,19.93-20.02l136.07.1v5.7ZM24.02,34.9H21.31v1.37L5,52.8V30.23L30.24,5H70.2V19H161V34.9Z" fill="#fff"/>
        <path id="Path_302" data-name="Path 302" d="M75.2,14V0H28.16L0,28.16V151.4H138.04L166,123.44V14Zm60.76,132.4H5V75.73L29.74,50.7H161v70.66ZM161,45.7H27.66L5,68.62V59.93c6.65-6.73,13.39-13.48,19.93-20.02l136.07.1v5.7ZM24.02,34.9H21.31v1.37L5,52.8V30.23L30.24,5H70.2V19H161V34.9Z" fill="rgba(0,0,0,0)"/>
      </g>
      <g id="Group_263" data-name="Group 263">
        <path id="Path_303" data-name="Path 303" d="M102.8,80.1a19.7,19.7,0,0,0-39.4,0v5.28l-9.9-.11V133.7H95.51l.73-.7c4.97-4.79,10.29-10.07,16.25-16.15l.72-.73V85.4h-10.4V80.1Zm-34.4,0a14.7,14.7,0,0,1,29.4,0v5.3H68.4Zm39.8,10.3v23.68c-5.36,5.45-10.18,10.25-14.71,14.62H58.5V90.33l4.9.05v.02Z" fill="#fff"/>
        <path id="Path_304" data-name="Path 304" d="M102.8,80.1a19.7,19.7,0,0,0-39.4,0v5.28l-9.9-.11V133.7H95.51l.73-.7c4.97-4.79,10.29-10.07,16.25-16.15l.72-.73V85.4h-10.4V80.1Zm-34.4,0a14.7,14.7,0,0,1,29.4,0v5.3H68.4Zm39.8,10.3v23.68c-5.36,5.45-10.18,10.25-14.71,14.62H58.5V90.33l4.9.05v.02Z" fill="rgba(0,0,0,0)"/>
      </g>
      <g id="Group_264" data-name="Group 264">
        <path id="Path_305" data-name="Path 305" d="M76.24,122.4H92.06l-2.04-12.04A8.726,8.726,0,1,0,75.4,103.9a8.869,8.869,0,0,0,2.88,6.47Zm7.86-22.2a3.744,3.744,0,0,1,3.7,3.7,3.8,3.8,0,0,1-1.8,3.27l-1.44.88,1.59,9.35H82.17l1.59-9.35-1.44-.88a3.9,3.9,0,0,1-1.9-3.27,3.744,3.744,0,0,1,3.7-3.7Z" fill="#fff"/>
        <path id="Path_306" data-name="Path 306" d="M76.24,122.4H92.06l-2.04-12.04A8.726,8.726,0,1,0,75.4,103.9a8.869,8.869,0,0,0,2.88,6.47Zm7.86-22.2a3.744,3.744,0,0,1,3.7,3.7,3.8,3.8,0,0,1-1.8,3.27l-1.44.88,1.59,9.35H82.17l1.59-9.35-1.44-.88a3.9,3.9,0,0,1-1.9-3.27,3.744,3.744,0,0,1,3.7-3.7Z" fill="rgba(0,0,0,0)"/>
      </g>
    </g>
  </g>
</svg>
