<svg xmlns="http://www.w3.org/2000/svg" xmlns:xlink="http://www.w3.org/1999/xlink" width="200" height="200" viewBox="0 0 200 200">
  <defs>
    <clipPath id="clip-path">
      <rect id="Rectangle_130" data-name="Rectangle 130" width="200" height="200" transform="translate(5269 4709)" fill="#fff" stroke="#707070" stroke-width="1"/>
    </clipPath>
  </defs>
  <g id="smart_contract" transform="translate(-5269 -4709)" clip-path="url(#clip-path)">
    <g id="Layer_1" transform="translate(5269 4757)">
      <g id="Group_267" data-name="Group 267" transform="translate(43.972 10.741)">
        <path id="Path_311" data-name="Path 311" d="M51.664,11.7a3.764,3.764,0,1,0,3.764,3.764A3.769,3.769,0,0,0,51.664,11.7Zm0,4.59a.826.826,0,1,1,.826-.826A.823.823,0,0,1,51.664,16.29Z" transform="translate(-47.9 -11.7)" fill="#fff"/>
        <path id="Path_312" data-name="Path 312" d="M51.664,11.7a3.764,3.764,0,1,0,3.764,3.764A3.769,3.769,0,0,0,51.664,11.7Zm0,4.59a.826.826,0,1,1,.826-.826A.823.823,0,0,1,51.664,16.29Z" transform="translate(-47.9 -11.7)" fill="rgba(0,0,0,0)"/>
      </g>
      <g id="Group_268" data-name="Group 268" transform="translate(54.804 10.741)">
        <path id="Path_313" data-name="Path 313" d="M63.464,11.7a3.764,3.764,0,1,0,3.764,3.764A3.769,3.769,0,0,0,63.464,11.7Zm0,4.59a.826.826,0,1,1,.826-.826A.823.823,0,0,1,63.464,16.29Z" transform="translate(-59.7 -11.7)" fill="#fff"/>
        <path id="Path_314" data-name="Path 314" d="M63.464,11.7a3.764,3.764,0,1,0,3.764,3.764A3.769,3.769,0,0,0,63.464,11.7Zm0,4.59a.826.826,0,1,1,.826-.826A.823.823,0,0,1,63.464,16.29Z" transform="translate(-59.7 -11.7)" fill="rgba(0,0,0,0)"/>
      </g>
      <g id="Group_269" data-name="Group 269" transform="translate(38.097 42.687)">
        <path id="Path_315" data-name="Path 315" d="M41.5,46.5H71.61v4.59H41.5Z" transform="translate(-41.5 -46.5)" fill="#fff"/>
        <path id="Path_316" data-name="Path 316" d="M41.5,46.5H71.61v4.59H41.5Z" transform="translate(-41.5 -46.5)" fill="rgba(0,0,0,0)"/>
      </g>
      <g id="Group_270" data-name="Group 270" transform="translate(38.097 56.181)">
        <path id="Path_317" data-name="Path 317" d="M41.5,61.2H71.61v4.59H41.5Z" transform="translate(-41.5 -61.2)" fill="#fff"/>
        <path id="Path_318" data-name="Path 318" d="M41.5,61.2H71.61v4.59H41.5Z" transform="translate(-41.5 -61.2)" fill="rgba(0,0,0,0)"/>
      </g>
      <g id="Group_271" data-name="Group 271" transform="translate(134.853 10.741)">
        <path id="Path_319" data-name="Path 319" d="M150.664,11.7a3.764,3.764,0,1,0,3.764,3.764A3.769,3.769,0,0,0,150.664,11.7Zm0,4.59a.826.826,0,1,1,.826-.826A.823.823,0,0,1,150.664,16.29Z" transform="translate(-146.9 -11.7)" fill="#fff"/>
        <path id="Path_320" data-name="Path 320" d="M150.664,11.7a3.764,3.764,0,1,0,3.764,3.764A3.769,3.769,0,0,0,150.664,11.7Zm0,4.59a.826.826,0,1,1,.826-.826A.823.823,0,0,1,150.664,16.29Z" transform="translate(-146.9 -11.7)" fill="rgba(0,0,0,0)"/>
      </g>
      <g id="Group_272" data-name="Group 272" transform="translate(145.685 10.741)">
        <path id="Path_321" data-name="Path 321" d="M162.464,11.7a3.764,3.764,0,1,0,3.764,3.764A3.769,3.769,0,0,0,162.464,11.7Zm0,4.59a.826.826,0,1,1,.826-.826A.823.823,0,0,1,162.464,16.29Z" transform="translate(-158.7 -11.7)" fill="#fff"/>
        <path id="Path_322" data-name="Path 322" d="M162.464,11.7a3.764,3.764,0,1,0,3.764,3.764A3.769,3.769,0,0,0,162.464,11.7Zm0,4.59a.826.826,0,1,1,.826-.826A.823.823,0,0,1,162.464,16.29Z" transform="translate(-158.7 -11.7)" fill="rgba(0,0,0,0)"/>
      </g>
      <g id="Group_273" data-name="Group 273" transform="translate(128.886 42.687)">
        <path id="Path_323" data-name="Path 323" d="M140.4,46.5h30.2v4.59H140.4Z" transform="translate(-140.4 -46.5)" fill="#fff"/>
        <path id="Path_324" data-name="Path 324" d="M140.4,46.5h30.2v4.59H140.4Z" transform="translate(-140.4 -46.5)" fill="rgba(0,0,0,0)"/>
      </g>
      <g id="Group_274" data-name="Group 274" transform="translate(128.886 56.181)">
        <path id="Path_325" data-name="Path 325" d="M140.4,61.2h30.2v4.59H140.4Z" transform="translate(-140.4 -61.2)" fill="#fff"/>
        <path id="Path_326" data-name="Path 326" d="M140.4,61.2h30.2v4.59H140.4Z" transform="translate(-140.4 -61.2)" fill="rgba(0,0,0,0)"/>
      </g>
      <g id="Group_275" data-name="Group 275">
        <path id="Path_327" data-name="Path 327" d="M191.4,66.2V50.591L176.622,38.6V24.419h-16.34V0H136.57l-8.877,8.776V24.419h-16.34V38.675L98.546,48.993,85.832,38.684V24.428H69.492V0H45.679L36.9,8.776V24.419H20.563V38.6L5.692,50.591V66.206a7.34,7.34,0,1,0,4.59.422V52.785L20.563,44.5V81.059H35.618V98.5H31.964l-.679.725c-.89.946-1.845,1.882-2.763,2.782-.477.468-.946.927-1.4,1.386l-.67.67v9.308H49.4V98.5h-9.18V81.059H66.1V98.5h-9.18v14.871h22.95V98.5h-9.18V81.059H85.841V44.587l10.1,8.188V66.665a7.343,7.343,0,1,0,4.59-.487V53.3l10.832-8.73v36.49h15.147V98.5h-3.617l-5.563,5.563v9.308h22.95V98.5H131.1V81.059h25.887V98.5h-9.18v14.871h22.95V98.5h-9.18V81.059h15.055V44.513l10.19,8.262V66.619a7.347,7.347,0,1,0,4.59-.422ZM132.283,10.685l6.178-6.1h17.231V23.96H132.283Zm-90.789,0,6.086-6.1H64.9V23.96H41.493ZM7.344,76.1A2.754,2.754,0,1,1,10.1,73.348,2.762,2.762,0,0,1,7.344,76.1ZM44.8,108.782H31.028v-2.809c.229-.229.468-.459.7-.688.725-.716,1.478-1.441,2.212-2.2H44.8v5.692Zm30.477,0H61.505V103.09h13.77Zm5.967-32.313H25.153V29.009H81.242Zm20.471-3.121a2.754,2.754,0,1,1-2.754-2.754A2.762,2.762,0,0,1,101.714,73.348Zm33.966,35.434h-13.77v-2.809l2.873-2.882h10.9Zm30.477,0h-13.77V103.09h13.77Zm5.875-32.313H115.942V29.009h56.089Zm17.717-.367a2.754,2.754,0,1,1,2.754-2.754A2.762,2.762,0,0,1,189.749,76.1Z" fill="#fff"/>
        <path id="Path_328" data-name="Path 328" d="M191.4,66.2V50.591L176.622,38.6V24.419h-16.34V0H136.57l-8.877,8.776V24.419h-16.34V38.675L98.546,48.993,85.832,38.684V24.428H69.492V0H45.679L36.9,8.776V24.419H20.563V38.6L5.692,50.591V66.206a7.34,7.34,0,1,0,4.59.422V52.785L20.563,44.5V81.059H35.618V98.5H31.964l-.679.725c-.89.946-1.845,1.882-2.763,2.782-.477.468-.946.927-1.4,1.386l-.67.67v9.308H49.4V98.5h-9.18V81.059H66.1V98.5h-9.18v14.871h22.95V98.5h-9.18V81.059H85.841V44.587l10.1,8.188V66.665a7.343,7.343,0,1,0,4.59-.487V53.3l10.832-8.73v36.49h15.147V98.5h-3.617l-5.563,5.563v9.308h22.95V98.5H131.1V81.059h25.887V98.5h-9.18v14.871h22.95V98.5h-9.18V81.059h15.055V44.513l10.19,8.262V66.619a7.347,7.347,0,1,0,4.59-.422ZM132.283,10.685l6.178-6.1h17.231V23.96H132.283Zm-90.789,0,6.086-6.1H64.9V23.96H41.493ZM7.344,76.1A2.754,2.754,0,1,1,10.1,73.348,2.762,2.762,0,0,1,7.344,76.1ZM44.8,108.782H31.028v-2.809c.229-.229.468-.459.7-.688.725-.716,1.478-1.441,2.212-2.2H44.8v5.692Zm30.477,0H61.505V103.09h13.77Zm5.967-32.313H25.153V29.009H81.242Zm20.471-3.121a2.754,2.754,0,1,1-2.754-2.754A2.762,2.762,0,0,1,101.714,73.348Zm33.966,35.434h-13.77v-2.809l2.873-2.882h10.9Zm30.477,0h-13.77V103.09h13.77Zm5.875-32.313H115.942V29.009h56.089Zm17.717-.367a2.754,2.754,0,1,1,2.754-2.754A2.762,2.762,0,0,1,189.749,76.1Z" fill="rgba(0,0,0,0)"/>
      </g>
    </g>
  </g>
</svg>
