<svg xmlns="http://www.w3.org/2000/svg" width="338.935" height="17.014" viewBox="0 0 338.935 17.014">
  <path id="tagline" d="M9.128,2.734A8.429,8.429,0,0,1,4.857,1.687a6.989,6.989,0,0,1-2.8-2.977A9.828,9.828,0,0,1,1.08-5.785a9.755,9.755,0,0,1,.977-4.483,7,7,0,0,1,2.8-2.965A8.429,8.429,0,0,1,9.128-14.28a9.5,9.5,0,0,1,3.153.518A6.989,6.989,0,0,1,14.776-12.3l-1.012,2.212A8.312,8.312,0,0,0,11.528-11.4a6.689,6.689,0,0,0-2.353-.412,4.574,4.574,0,0,0-3.706,1.553A6.77,6.77,0,0,0,4.163-5.785,6.811,6.811,0,0,0,5.469-1.29,4.574,4.574,0,0,0,9.175.263a6.689,6.689,0,0,0,2.353-.412,8.312,8.312,0,0,0,2.236-1.306L14.776.757a6.989,6.989,0,0,1-2.494,1.459A9.5,9.5,0,0,1,9.128,2.734ZM23.012,2.71a6.332,6.332,0,0,1-3.094-.73A5.048,5.048,0,0,1,17.859-.114a6.64,6.64,0,0,1-.729-3.177,6.571,6.571,0,0,1,.729-3.165,5.065,5.065,0,0,1,2.059-2.083,6.332,6.332,0,0,1,3.094-.73,6.332,6.332,0,0,1,3.094.73,4.991,4.991,0,0,1,2.047,2.083,6.659,6.659,0,0,1,.718,3.165,6.729,6.729,0,0,1-.718,3.177,4.975,4.975,0,0,1-2.047,2.094A6.332,6.332,0,0,1,23.012,2.71ZM22.989.428a2.637,2.637,0,0,0,2.189-.941A4.373,4.373,0,0,0,25.93-3.29a4.382,4.382,0,0,0-.753-2.765,2.6,2.6,0,0,0-2.165-.953,2.63,2.63,0,0,0-2.177.953,4.333,4.333,0,0,0-.765,2.765,4.373,4.373,0,0,0,.753,2.777A2.61,2.61,0,0,0,22.989.428Zm22.685-9.7A3.571,3.571,0,0,1,48.592-8.1a5.512,5.512,0,0,1,.965,3.565v7.06H46.615V-4.42a3.244,3.244,0,0,0-.447-1.918,1.672,1.672,0,0,0-1.435-.6,2.247,2.247,0,0,0-1.836.8A3.422,3.422,0,0,0,42.238-3.9V2.522H39.3V-4.42a3.313,3.313,0,0,0-.435-1.918,1.667,1.667,0,0,0-1.447-.6,2.22,2.22,0,0,0-1.812.8A3.422,3.422,0,0,0,34.943-3.9V2.522H32V-8.985h2.871v1.624a3.44,3.44,0,0,1,1.435-1.424A4.434,4.434,0,0,1,38.4-9.268,3.347,3.347,0,0,1,41.861-7.1a3.931,3.931,0,0,1,1.553-1.588A4.482,4.482,0,0,1,45.674-9.268Zm21.25,0A3.571,3.571,0,0,1,69.841-8.1a5.512,5.512,0,0,1,.965,3.565v7.06H67.865V-4.42a3.244,3.244,0,0,0-.447-1.918,1.672,1.672,0,0,0-1.435-.6,2.247,2.247,0,0,0-1.836.8A3.422,3.422,0,0,0,63.488-3.9V2.522H60.546V-4.42a3.313,3.313,0,0,0-.435-1.918,1.667,1.667,0,0,0-1.447-.6,2.22,2.22,0,0,0-1.812.8A3.422,3.422,0,0,0,56.193-3.9V2.522H53.251V-8.985h2.871v1.624a3.44,3.44,0,0,1,1.435-1.424,4.434,4.434,0,0,1,2.094-.482A3.347,3.347,0,0,1,63.111-7.1a3.931,3.931,0,0,1,1.553-1.588A4.482,4.482,0,0,1,66.923-9.268ZM79.748,2.71a6.332,6.332,0,0,1-3.095-.73A5.048,5.048,0,0,1,74.595-.114a6.64,6.64,0,0,1-.73-3.177,6.571,6.571,0,0,1,.73-3.165,5.065,5.065,0,0,1,2.059-2.083,6.332,6.332,0,0,1,3.095-.73,6.332,6.332,0,0,1,3.094.73A4.991,4.991,0,0,1,84.89-6.456a6.659,6.659,0,0,1,.718,3.165A6.729,6.729,0,0,1,84.89-.114a4.975,4.975,0,0,1-2.047,2.094A6.332,6.332,0,0,1,79.748,2.71ZM79.725.428a2.637,2.637,0,0,0,2.188-.941,4.373,4.373,0,0,0,.753-2.777,4.382,4.382,0,0,0-.753-2.765,2.6,2.6,0,0,0-2.165-.953,2.63,2.63,0,0,0-2.177.953,4.333,4.333,0,0,0-.765,2.765A4.373,4.373,0,0,0,77.56-.514,2.61,2.61,0,0,0,79.725.428Zm15.7-9.7A3.846,3.846,0,0,1,98.5-8.091a5.336,5.336,0,0,1,1.012,3.553v7.06H96.574V-4.373a3.051,3.051,0,0,0-.506-1.953,1.944,1.944,0,0,0-1.588-.612,2.685,2.685,0,0,0-2.036.8A2.97,2.97,0,0,0,91.679-4V2.522H88.738V-8.985h2.871v1.718A3.979,3.979,0,0,1,93.185-8.75,4.745,4.745,0,0,1,95.421-9.268ZM107.446,2.71a9.953,9.953,0,0,1-2.812-.377,6.363,6.363,0,0,1-2.177-1.082L103.281-.8A6.954,6.954,0,0,0,107.493.545a2.943,2.943,0,0,0,1.541-.329,1.047,1.047,0,0,0,.529-.941.953.953,0,0,0-.365-.8,3.755,3.755,0,0,0-1.306-.518l-1.883-.424a4.629,4.629,0,0,1-2.377-1.153,2.849,2.849,0,0,1-.777-2.071,3.064,3.064,0,0,1,.6-1.871,3.875,3.875,0,0,1,1.671-1.259,6.4,6.4,0,0,1,2.483-.447,7.5,7.5,0,0,1,2.365.377,6.562,6.562,0,0,1,2.012,1.059l-.824,2a6.078,6.078,0,0,0-3.577-1.294,2.742,2.742,0,0,0-1.506.353,1.116,1.116,0,0,0-.541.988,1,1,0,0,0,.341.777,2.42,2.42,0,0,0,1.094.471l1.953.447A4.97,4.97,0,0,1,111.446-2.9a2.9,2.9,0,0,1,.8,2.13,2.982,2.982,0,0,1-1.294,2.541A5.846,5.846,0,0,1,107.446,2.71ZM125.425-2.7h-7.836a3.578,3.578,0,0,0,.965,2.377,3.3,3.3,0,0,0,2.353.777,5.549,5.549,0,0,0,3.483-1.224l.847,2.024a6.177,6.177,0,0,1-2.012,1.059,7.728,7.728,0,0,1-2.436.4,6.1,6.1,0,0,1-4.459-1.6,5.842,5.842,0,0,1-1.635-4.377A6.715,6.715,0,0,1,115.4-6.4a5.133,5.133,0,0,1,1.988-2.118,5.632,5.632,0,0,1,2.906-.753,4.8,4.8,0,0,1,3.753,1.53,6.068,6.068,0,0,1,1.377,4.212ZM120.365-7.2a2.5,2.5,0,0,0-1.894.753,3.662,3.662,0,0,0-.882,2.165h5.318a3.355,3.355,0,0,0-.706-2.177A2.328,2.328,0,0,0,120.365-7.2Zm14.849-2.071A3.846,3.846,0,0,1,138.3-8.091a5.336,5.336,0,0,1,1.012,3.553v7.06h-2.942V-4.373a3.051,3.051,0,0,0-.506-1.953,1.944,1.944,0,0,0-1.588-.612,2.685,2.685,0,0,0-2.036.8A2.97,2.97,0,0,0,131.472-4V2.522h-2.942V-8.985H131.4v1.718a3.98,3.98,0,0,1,1.577-1.483A4.745,4.745,0,0,1,135.214-9.268ZM147.239,2.71a9.953,9.953,0,0,1-2.812-.377,6.364,6.364,0,0,1-2.177-1.082L143.074-.8A6.954,6.954,0,0,0,147.286.545a2.943,2.943,0,0,0,1.541-.329,1.047,1.047,0,0,0,.529-.941.953.953,0,0,0-.365-.8,3.755,3.755,0,0,0-1.306-.518L145.8-2.467a4.629,4.629,0,0,1-2.377-1.153,2.849,2.849,0,0,1-.777-2.071,3.064,3.064,0,0,1,.6-1.871,3.875,3.875,0,0,1,1.671-1.259,6.4,6.4,0,0,1,2.483-.447,7.5,7.5,0,0,1,2.365.377,6.562,6.562,0,0,1,2.012,1.059l-.824,2a6.078,6.078,0,0,0-3.577-1.294,2.742,2.742,0,0,0-1.506.353,1.116,1.116,0,0,0-.541.988,1,1,0,0,0,.341.777,2.42,2.42,0,0,0,1.094.471l1.953.447A4.97,4.97,0,0,1,151.239-2.9a2.9,2.9,0,0,1,.8,2.13,2.982,2.982,0,0,1-1.294,2.541A5.846,5.846,0,0,1,147.239,2.71ZM165.218-2.7h-7.836a3.578,3.578,0,0,0,.965,2.377A3.3,3.3,0,0,0,160.7.451a5.549,5.549,0,0,0,3.483-1.224l.847,2.024a6.177,6.177,0,0,1-2.012,1.059,7.728,7.728,0,0,1-2.436.4,6.1,6.1,0,0,1-4.459-1.6,5.842,5.842,0,0,1-1.635-4.377,6.715,6.715,0,0,1,.706-3.13,5.133,5.133,0,0,1,1.988-2.118,5.632,5.632,0,0,1,2.906-.753,4.8,4.8,0,0,1,3.753,1.53,6.068,6.068,0,0,1,1.377,4.212ZM160.158-7.2a2.5,2.5,0,0,0-1.894.753,3.662,3.662,0,0,0-.882,2.165H162.7a3.355,3.355,0,0,0-.706-2.177A2.328,2.328,0,0,0,160.158-7.2Zm26.356-6.871V2.522H183.6V.663A3.684,3.684,0,0,1,182.1,2.169a4.51,4.51,0,0,1-2.224.541,4.769,4.769,0,0,1-2.647-.753,4.993,4.993,0,0,1-1.812-2.13,7.36,7.36,0,0,1-.647-3.165,7.126,7.126,0,0,1,.647-3.13,4.9,4.9,0,0,1,1.8-2.071,4.867,4.867,0,0,1,2.659-.73,4.605,4.605,0,0,1,2.212.518,3.591,3.591,0,0,1,1.483,1.459v-6.777Zm-5.86,14.5a2.616,2.616,0,0,0,2.177-.965A4.342,4.342,0,0,0,183.6-3.29a4.29,4.29,0,0,0-.765-2.742,2.6,2.6,0,0,0-2.153-.953,2.678,2.678,0,0,0-2.189.941,4.152,4.152,0,0,0-.777,2.706,4.4,4.4,0,0,0,.777,2.777A2.6,2.6,0,0,0,180.655.428Zm14.543-9.7a4.9,4.9,0,0,1,3.6,1.177,4.937,4.937,0,0,1,1.177,3.624V2.522h-2.8V.757a3.07,3.07,0,0,1-1.259,1.435,3.776,3.776,0,0,1-1.988.518,4.617,4.617,0,0,1-2.094-.471A3.726,3.726,0,0,1,190.35.945a3.27,3.27,0,0,1-.541-1.836,2.908,2.908,0,0,1,.647-2,3.889,3.889,0,0,1,2.106-1.059,19.18,19.18,0,0,1,4.024-.329h.588V-4.82a2.365,2.365,0,0,0-.506-1.694,2.286,2.286,0,0,0-1.683-.518,6.33,6.33,0,0,0-1.918.318,9.7,9.7,0,0,0-1.965.882l-.824-2.024a9.138,9.138,0,0,1,2.33-1.012A9.211,9.211,0,0,1,195.2-9.268Zm-.682,9.86A2.513,2.513,0,0,0,196.433-.2a2.851,2.851,0,0,0,.741-2.036v-.494h-.424a16.234,16.234,0,0,0-2.447.141,2.376,2.376,0,0,0-1.247.494,1.258,1.258,0,0,0-.376.965A1.614,1.614,0,0,0,193.2.11,1.857,1.857,0,0,0,194.515.592ZM209.552.5a8.735,8.735,0,0,0,1.082-.071l-.141,2.189q-.706.071-1.294.071a4.975,4.975,0,0,1-3.577-1.118,4.435,4.435,0,0,1-1.153-3.33V-6.773h-2.212V-8.985h2.212v-3.436h2.942v3.436h3.036v2.212h-3.036v4.965Q207.411.5,209.552.5ZM218-9.268a4.9,4.9,0,0,1,3.6,1.177,4.937,4.937,0,0,1,1.177,3.624V2.522h-2.8V.757a3.07,3.07,0,0,1-1.259,1.435,3.776,3.776,0,0,1-1.988.518,4.617,4.617,0,0,1-2.094-.471A3.726,3.726,0,0,1,213.153.945a3.27,3.27,0,0,1-.541-1.836,2.908,2.908,0,0,1,.647-2,3.889,3.889,0,0,1,2.106-1.059,19.18,19.18,0,0,1,4.024-.329h.588V-4.82a2.365,2.365,0,0,0-.506-1.694,2.286,2.286,0,0,0-1.683-.518,6.33,6.33,0,0,0-1.918.318,9.7,9.7,0,0,0-1.965.882l-.824-2.024a9.138,9.138,0,0,1,2.33-1.012A9.211,9.211,0,0,1,218-9.268Zm-.682,9.86A2.514,2.514,0,0,0,219.236-.2a2.852,2.852,0,0,0,.741-2.036v-.494h-.424a16.234,16.234,0,0,0-2.447.141,2.376,2.376,0,0,0-1.247.494,1.258,1.258,0,0,0-.377.965A1.614,1.614,0,0,0,216,.11,1.857,1.857,0,0,0,217.318.592Zm27.345-14.661V2.522h-2.918V.663a3.684,3.684,0,0,1-1.494,1.506,4.51,4.51,0,0,1-2.224.541,4.769,4.769,0,0,1-2.647-.753,4.993,4.993,0,0,1-1.812-2.13,7.36,7.36,0,0,1-.647-3.165,7.126,7.126,0,0,1,.647-3.13,4.9,4.9,0,0,1,1.8-2.071,4.867,4.867,0,0,1,2.659-.73,4.606,4.606,0,0,1,2.212.518,3.591,3.591,0,0,1,1.483,1.459v-6.777ZM238.8.428a2.616,2.616,0,0,0,2.177-.965,4.342,4.342,0,0,0,.765-2.753,4.29,4.29,0,0,0-.765-2.742,2.6,2.6,0,0,0-2.153-.953,2.678,2.678,0,0,0-2.189.941,4.152,4.152,0,0,0-.777,2.706,4.4,4.4,0,0,0,.777,2.777A2.6,2.6,0,0,0,238.8.428ZM258.5-2.7h-7.836a3.578,3.578,0,0,0,.965,2.377,3.3,3.3,0,0,0,2.353.777,5.549,5.549,0,0,0,3.483-1.224l.847,2.024A6.177,6.177,0,0,1,256.3,2.31a7.728,7.728,0,0,1-2.436.4,6.1,6.1,0,0,1-4.459-1.6,5.842,5.842,0,0,1-1.635-4.377,6.715,6.715,0,0,1,.706-3.13,5.133,5.133,0,0,1,1.988-2.118,5.632,5.632,0,0,1,2.906-.753,4.8,4.8,0,0,1,3.753,1.53A6.068,6.068,0,0,1,258.5-3.526ZM253.44-7.2a2.5,2.5,0,0,0-1.894.753,3.662,3.662,0,0,0-.882,2.165h5.318a3.355,3.355,0,0,0-.706-2.177A2.328,2.328,0,0,0,253.44-7.2Zm11.837-1.788h3.036v2.212h-3.036v9.3h-2.942v-9.3h-2.212V-8.985h2.212a4.962,4.962,0,0,1,1.283-3.718,6.011,6.011,0,0,1,3.989-1.388l1.153-.071.188,2.189-1.106.047a3.089,3.089,0,0,0-1.977.624,2.342,2.342,0,0,0-.588,1.777ZM280.643-2.7h-7.836a3.578,3.578,0,0,0,.965,2.377,3.3,3.3,0,0,0,2.353.777,5.549,5.549,0,0,0,3.483-1.224l.847,2.024a6.177,6.177,0,0,1-2.012,1.059,7.728,7.728,0,0,1-2.436.4,6.1,6.1,0,0,1-4.459-1.6,5.842,5.842,0,0,1-1.635-4.377,6.715,6.715,0,0,1,.706-3.13,5.133,5.133,0,0,1,1.988-2.118,5.632,5.632,0,0,1,2.906-.753,4.8,4.8,0,0,1,3.753,1.53,6.068,6.068,0,0,1,1.377,4.212ZM275.584-7.2a2.5,2.5,0,0,0-1.894.753,3.662,3.662,0,0,0-.882,2.165h5.318a3.355,3.355,0,0,0-.706-2.177A2.328,2.328,0,0,0,275.584-7.2Zm14.849-2.071a3.846,3.846,0,0,1,3.083,1.177,5.336,5.336,0,0,1,1.012,3.553v7.06h-2.942V-4.373a3.051,3.051,0,0,0-.506-1.953,1.944,1.944,0,0,0-1.588-.612,2.685,2.685,0,0,0-2.036.8A2.97,2.97,0,0,0,286.691-4V2.522H283.75V-8.985h2.871v1.718A3.979,3.979,0,0,1,288.2-8.75,4.745,4.745,0,0,1,290.433-9.268ZM302.458,2.71a9.953,9.953,0,0,1-2.812-.377,6.364,6.364,0,0,1-2.177-1.082L298.293-.8A6.954,6.954,0,0,0,302.5.545a2.943,2.943,0,0,0,1.541-.329,1.047,1.047,0,0,0,.53-.941.953.953,0,0,0-.365-.8,3.756,3.756,0,0,0-1.306-.518l-1.883-.424a4.629,4.629,0,0,1-2.377-1.153,2.849,2.849,0,0,1-.777-2.071,3.064,3.064,0,0,1,.6-1.871,3.876,3.876,0,0,1,1.671-1.259,6.4,6.4,0,0,1,2.483-.447,7.5,7.5,0,0,1,2.365.377A6.562,6.562,0,0,1,307-7.832l-.824,2A6.078,6.078,0,0,0,302.6-7.126a2.742,2.742,0,0,0-1.506.353,1.117,1.117,0,0,0-.541.988,1,1,0,0,0,.341.777,2.42,2.42,0,0,0,1.094.471l1.953.447A4.97,4.97,0,0,1,306.458-2.9a2.9,2.9,0,0,1,.8,2.13,2.982,2.982,0,0,1-1.294,2.541A5.846,5.846,0,0,1,302.458,2.71ZM320.437-2.7H312.6a3.578,3.578,0,0,0,.965,2.377,3.3,3.3,0,0,0,2.353.777A5.549,5.549,0,0,0,319.4-.772l.847,2.024a6.176,6.176,0,0,1-2.012,1.059,7.728,7.728,0,0,1-2.436.4,6.1,6.1,0,0,1-4.459-1.6,5.842,5.842,0,0,1-1.635-4.377,6.716,6.716,0,0,1,.706-3.13A5.134,5.134,0,0,1,312.4-8.515a5.632,5.632,0,0,1,2.906-.753,4.8,4.8,0,0,1,3.753,1.53,6.068,6.068,0,0,1,1.377,4.212ZM315.377-7.2a2.5,2.5,0,0,0-1.894.753,3.662,3.662,0,0,0-.882,2.165h5.318a3.355,3.355,0,0,0-.706-2.177A2.328,2.328,0,0,0,315.377-7.2Zm16.237-6.989a8.4,8.4,0,0,1,4.271,1.106,8.107,8.107,0,0,1,3.024,3.024,8.394,8.394,0,0,1,1.106,4.271,8.394,8.394,0,0,1-1.106,4.271,8.169,8.169,0,0,1-3.036,3.036,8.344,8.344,0,0,1-4.259,1.118,8.389,8.389,0,0,1-4.283-1.118A8.17,8.17,0,0,1,324.3-1.514a8.4,8.4,0,0,1-1.106-4.271,8.4,8.4,0,0,1,1.106-4.271,8.082,8.082,0,0,1,3.036-3.024A8.459,8.459,0,0,1,331.614-14.186Zm0,15.531A6.923,6.923,0,0,0,335.191.4a6.814,6.814,0,0,0,2.518-2.565,7.236,7.236,0,0,0,.918-3.624,7.236,7.236,0,0,0-.918-3.624,6.727,6.727,0,0,0-2.518-2.553,6.99,6.99,0,0,0-3.577-.93,7.036,7.036,0,0,0-3.6.93A6.727,6.727,0,0,0,325.5-9.409a7.236,7.236,0,0,0-.918,3.624,7.236,7.236,0,0,0,.918,3.624A6.814,6.814,0,0,0,328.014.4,6.967,6.967,0,0,0,331.614,1.345Zm1.953-6.095a2.234,2.234,0,0,1,1.459,1.177L336.58-.82h-2.942L331.967-4a1.257,1.257,0,0,0-.353-.412.856.856,0,0,0-.494-.129h-.8V-.82h-2.589V-10.75h4.542a3.949,3.949,0,0,1,2.683.824,2.818,2.818,0,0,1,.941,2.236,3,3,0,0,1-.612,1.894A2.938,2.938,0,0,1,333.568-4.749ZM331.92-6.4a1.877,1.877,0,0,0,1.118-.271,1.026,1.026,0,0,0,.365-.882,1.124,1.124,0,0,0-.365-.93,1.763,1.763,0,0,0-1.118-.294H330.3V-6.4Z" transform="translate(-1.08 14.28)"/>
</svg>
