<?xml version="1.0" encoding="UTF-8"?>
<svg id="Layer_1" data-name="Layer 1" xmlns="http://www.w3.org/2000/svg" xmlns:xlink="http://www.w3.org/1999/xlink" viewBox="0 0 274.64 274.64">
  <defs>
    <style>
      .cls-1 {
        clip-path: url(#clippath);
      }

      .cls-2 {
        fill: none;
      }

      .cls-2, .cls-3, .cls-4 {
        stroke-width: 0px;
      }

      .cls-4 {
        fill: #fff;
      }
    </style>
    <clipPath id="clippath">
      <rect class="cls-2" width="274.64" height="274.64"/>
    </clipPath>
  </defs>
  <g id="Group_9" data-name="Group 9">
    <g class="cls-1">
      <g id="Group_8" data-name="Group 8">
        <path id="Path_14" data-name="Path 14" class="cls-3" d="M274.64,274.64H3.35V3.35h271.29v271.29ZM215.17,216.79l-61.88-89.95,56.49-65.76c-4.29,0-7.5-.22-10.67.1-1.64.16-3.17.89-4.33,2.05-10.56,12.08-20.96,24.3-31.42,36.47-5.27,6.13-10.57,12.24-16,18.52-12.57-18.27-24.95-36.17-37.22-54.19-1.06-1.99-3.19-3.18-5.44-3.04-12.71.16-25.42.06-38.12.08-.97,0-1.94.2-3.35.36l59.1,85.92-59.55,69.44c3.29.17,6.59.14,9.88-.1,2.01-.19,3.89-1.04,5.37-2.4,10.68-12.15,21.14-24.49,31.69-36.76,6.07-7.07,12.17-14.1,18.42-21.34.91,1.17,1.61,1.97,2.23,2.83,11.82,17.17,23.75,34.23,35.32,51.59,2.27,4.37,6.98,6.9,11.88,6.37,12.24-.54,24.49-.16,37.68-.16"/>
        <path id="Path_15" data-name="Path 15" class="cls-4" d="M215.18,216.79c-13.15,0-25.44-.38-37.68.16-4.89.53-9.61-2-11.88-6.37-11.54-17.35-23.5-34.42-35.32-51.59-.59-.87-1.29-1.66-2.23-2.83-6.25,7.24-12.35,14.27-18.42,21.34-10.55,12.27-21.01,24.61-31.69,36.76-1.48,1.37-3.37,2.21-5.37,2.4-3.29.24-6.59.28-9.88.1l59.55-69.41L63.23,61.44c1.41-.16,2.38-.35,3.35-.36,12.71,0,25.42.07,38.12-.08,2.25-.15,4.39,1.04,5.45,3.03,12.26,17.99,24.64,35.9,37.22,54.19,5.43-6.28,10.73-12.39,16-18.52,10.47-12.2,20.86-24.4,31.4-36.48,1.16-1.16,2.69-1.89,4.33-2.05,3.17-.31,6.39-.1,10.67-.1l-56.46,65.77,61.88,89.95M195.45,206.45l-24.55-35.63c-22.18-32.28-44.38-64.53-66.57-96.75-.71-1.02-1.8-2.48-2.75-2.52-6.04-.23-12.09-.12-18.75-.12.82,1.26,1.15,1.81,1.48,2.34,12.1,17.61,24.21,35.22,36.32,52.83,17.64,25.64,35.3,51.26,52.98,76.87.85,1.4,2.22,2.42,3.81,2.84,5.71.31,11.45.13,17.99.13"/>
        <path id="Path_16" data-name="Path 16" class="cls-3" d="M195.42,206.45c-6.55,0-12.28.18-17.99-.13-1.59-.42-2.95-1.44-3.81-2.84-17.72-25.58-35.38-51.21-52.98-76.87-12.11-17.6-24.22-35.21-36.32-52.83-.36-.53-.7-1.08-1.48-2.34,6.68,0,12.71-.11,18.75.12.96,0,2.05,1.48,2.75,2.52,22.21,32.22,44.4,64.46,66.57,96.71l24.55,35.63"/>
      </g>
    </g>
  </g>
</svg>