<?xml version="1.0" standalone="no"?>
<!DOCTYPE svg PUBLIC "-//W3C//DTD SVG 20010904//EN"
 "http://www.w3.org/TR/2001/REC-SVG-20010904/DTD/svg10.dtd">
<svg version="1.0" xmlns="http://www.w3.org/2000/svg"
 width="376.000000pt" height="376.000000pt" viewBox="0 0 376.000000 376.000000"
 preserveAspectRatio="xMidYMid meet">
<metadata>
Created by potrace 1.14, written by Peter Selinger 2001-2017
</metadata>
<g transform="translate(0.000000,376.000000) scale(0.100000,-0.100000)"
fill="#000000" stroke="none">
<path d="M622 3152 l-612 -607 0 -1267 0 -1268 53 0 c96 -1 2241 -1 2342 0
l100 1 245 241 c135 132 415 407 623 611 l377 371 0 1262 0 1262 -1257 0
-1258 0 -613 -606z m2983 466 c7 -4 10 -399 10 -1167 l0 -1162 -160 -156 c-88
-86 -332 -325 -543 -532 -211 -207 -384 -377 -385 -378 -1 -1 -2 521 -2 1160
l0 1162 -550 2 c-302 1 -567 2 -587 3 l-37 0 0 532 c0 293 2 535 4 538 5 7
2238 6 2250 -2z m-2388 -1246 c1 -636 2 -1160 2 -1163 1 -4 254 -7 564 -7 309
0 572 -1 585 -1 l22 -1 -2 -527 -3 -528 -1117 0 c-986 0 -1117 2 -1120 15 -2
8 -3 536 -3 1173 l1 1157 529 524 c292 288 532 522 535 519 3 -2 6 -525 7
-1161z m1111 38 l62 0 0 -535 c0 -421 -3 -535 -12 -536 -18 0 -978 -1 -1005 0
l-22 1 0 535 1 534 91 3 c76 3 289 2 885 -2z"/>
</g>
</svg>
