<svg xmlns="http://www.w3.org/2000/svg" viewBox="0 0 782.27 782.24"><g id="Layer_2" data-name="Layer 2"><g id="Layer_1-2" data-name="Layer 1"><path d="M391.12,0C175.12,0,0,175.12,0,391.12S175.12,782.23,391.12,782.24s391.13-175.1,391.15-391.12S607.14,0,391.12,0ZM655.24,502.48a85.52,85.52,0,0,1-84.39,86.64c-1.14,0-2.27,0-3.41,0H216.29A89,89,0,0,1,178,581.79a83.8,83.8,0,0,1-49.35-62.3,91.76,91.76,0,0,1-1.58-18v-221a84.74,84.74,0,0,1,29.72-66.88,83.64,83.64,0,0,1,55.45-20.63H566.38a88.7,88.7,0,0,1,38.76,7.68,83.85,83.85,0,0,1,48.55,61.64,87.54,87.54,0,0,1,1.55,17.47Q655.39,391.09,655.24,502.48Z"/><path d="M630,280.71a74.2,74.2,0,0,0-.63-10.54,58.12,58.12,0,0,0-19.51-37,61.66,61.66,0,0,0-42.5-15q-176.25.16-352.45,0a74.79,74.79,0,0,0-8.2.23A58.64,58.64,0,0,0,157.36,254a64.74,64.74,0,0,0-5.15,28.12V500.21a74.62,74.62,0,0,0,.26,7.62,58.37,58.37,0,0,0,25.89,45.73,60.49,60.49,0,0,0,36,10.39q88.23-.15,176.49,0l.08-.15H565c3.31,0,6.64,0,10-.2a58.28,58.28,0,0,0,44.17-25.38A61.35,61.35,0,0,0,630,501.16Zm-154.78,119L585.89,504.52a40.72,40.72,0,0,1,4.43,4.67,11.5,11.5,0,0,1-.78,15.94,12.26,12.26,0,0,1-16.4,2.33,39.82,39.82,0,0,1-5.41-4.46L458,418.89c-1.68-1.59-3.41-3.08-5.67-5.13-2,1.88-3.55,3.26-5,4.72l-44.08,43a37.4,37.4,0,0,1-4.89,4.17,11.84,11.84,0,0,1-14.25,0,40.45,40.45,0,0,1-5.32-4.55q-21.87-21.26-43.65-42.56c-1.38-1.35-2.88-2.64-4.69-4.34-1.73,1.49-3.34,2.88-4.87,4.23q-51.79,48.92-103.3,98.1c-3.83,3.62-7.71,7.22-11.77,10.53a13.23,13.23,0,0,1-20.4-9.35,12.3,12.3,0,0,1,4.25-10.42c4.18-4.12,8.44-8.15,12.69-12.17q50.28-47.55,100.58-95a33.86,33.86,0,0,1,4.8-3.14c-2.39-2.56-3.65-4-5-5.32L195.72,282.78a50.74,50.74,0,0,1-5.18-5.59,11.29,11.29,0,0,1,1-15,12.13,12.13,0,0,1,15.79-3.14,46.06,46.06,0,0,1,6.71,5.76q70.62,68.68,141.14,137.4l31.08,30.31c1.38,1.35,2.88,2.64,4.72,4.37,1.56-1.35,3-2.53,4.38-3.83L501.58,329.51l67.65-65.84c1.12-1.09,2.33-2.1,3.48-3.14A12.91,12.91,0,0,1,593,266a11,11,0,0,1-2.88,12.89q-9.33,9.33-18.76,18.53l-97.38,95c-.84.81-1.53,1.76-2.68,3.08C472.69,397,473.87,398.37,475.22,399.69Z"/></g></g></svg>