<svg xmlns="http://www.w3.org/2000/svg" viewBox="0 0 782.27 782.24"><g id="Layer_2" data-name="Layer 2"><g id="Layer_1-2" data-name="Layer 1"><path d="M391.12,0C175.12,0,0,175.12,0,391.12S175.12,782.23,391.12,782.24s391.13-175.1,391.15-391.12S607.14,0,391.12,0Zm200.4,284.62a18.4,18.4,0,0,0-8.24,16.8A284.2,284.2,0,0,1,411.05,566.86a280.34,280.34,0,0,1-255.49-16.93c-2-1.17-3.87-2.57-5.82-3.84a214.15,214.15,0,0,0,143.05-43A103.21,103.21,0,0,1,200,433h41.51c.16-.62.34-1.31.5-2a101.73,101.73,0,0,1-77.19-97.46l41.32,11.72c.4-.71.78-1.52,1.18-2.29a102.05,102.05,0,0,1-28.55-132.49,287.28,287.28,0,0,0,205.92,104.9,69.65,69.65,0,0,0-.34-7.22,99.93,99.93,0,0,1,166.74-88.94,10.88,10.88,0,0,0,12.4,3.1c9.45-3.1,19.22-5.61,28.52-9.3s17.57-8,27.4-12.4a113.33,113.33,0,0,1-38.87,53.6c5.48-1,11-1.8,16.46-3.1s11.53-2.91,17.23-4.71,11.1-3.81,18.32-6.2A180.79,180.79,0,0,1,591.52,284.62Z"/></g></g></svg>