<svg id="Layer_1" data-name="Layer 1" xmlns="http://www.w3.org/2000/svg" xmlns:xlink="http://www.w3.org/1999/xlink" viewBox="0 0 3840 2160"><defs><style>.cls-1,.cls-3{fill:none;}.cls-2{clip-path:url(#clip-path);}.cls-3{stroke:#333;stroke-miterlimit:10;stroke-width:5.83px;}</style><clipPath id="clip-path"><rect class="cls-1" width="3840" height="2160"/></clipPath></defs><rect width="3840" height="2160"/><g class="cls-2"><polyline class="cls-3" points="3779.8 2284.93 3691.52 2284.93 3691.52 2110.84"/><polygon class="cls-3" points="3691.52 2106.42 3602.27 2195.67 3602.27 2374.18 3780.77 2374.18 3870.03 2284.93 3870.03 2106.42 3691.52 2106.42"/><polyline class="cls-3" points="3870.03 2017.16 3781.74 2017.16 3781.74 1843.08"/><polygon class="cls-3" points="3781.74 1838.66 3692.49 1927.91 3692.49 2106.42 3871 2106.42 3960.25 2017.16 3960.25 1838.66 3781.74 1838.66"/><polyline class="cls-3" points="3870.03 2106.42 3870.03 1927.9 3781.26 1927.9"/><polyline class="cls-3" points="3602.27 2106.42 3513.98 2106.42 3513.98 1932.34"/><polygon class="cls-3" points="3513.98 1927.91 3424.73 2017.16 3424.73 2195.67 3603.23 2195.67 3692.49 2106.42 3692.49 1927.91 3513.98 1927.91"/><polyline class="cls-3" points="3602.27 2195.67 3602.27 2017.16 3513.5 2017.16"/><polyline class="cls-3" points="3334.51 2195.67 3246.22 2195.67 3246.22 2021.59"/><polygon class="cls-3" points="3246.22 2017.16 3156.97 2106.42 3156.97 2284.93 3335.47 2284.93 3424.73 2195.67 3424.73 2017.16 3246.22 2017.16"/><polyline class="cls-3" points="3334.51 2284.93 3334.51 2106.41 3245.74 2106.41"/><polyline class="cls-3" points="3066.74 2284.93 2978.46 2284.93 2978.46 2110.84"/><polygon class="cls-3" points="2978.46 2106.42 2889.2 2195.67 2889.2 2374.18 3067.71 2374.18 3156.97 2284.93 3156.97 2106.42 2978.46 2106.42"/><polygon class="cls-3" points="3871.96 1570.9 3782.71 1660.15 3782.71 1838.66 3961.22 1838.66 4050.47 1749.4 4050.47 1570.9 3871.96 1570.9"/><polyline class="cls-3" points="3692.49 1838.66 3604.2 1838.66 3604.2 1664.58"/><polygon class="cls-3" points="3604.2 1660.15 3514.95 1749.4 3514.95 1927.91 3693.46 1927.91 3782.71 1838.66 3782.71 1660.15 3604.2 1660.15"/><polyline class="cls-3" points="3692.49 1927.91 3692.49 1749.4 3603.72 1749.4"/><polyline class="cls-3" points="3424.73 1927.91 3336.44 1927.91 3336.44 1753.83"/><polygon class="cls-3" points="3336.44 1749.4 3247.19 1838.66 3247.19 2017.16 3425.7 2017.16 3514.95 1927.91 3514.95 1749.4 3336.44 1749.4"/><polyline class="cls-3" points="3424.73 2017.16 3424.73 1838.65 3335.96 1838.65"/><polyline class="cls-3" points="3156.97 2017.16 3068.68 2017.16 3068.68 1843.08"/><polygon class="cls-3" points="3068.68 1838.66 2979.43 1927.91 2979.43 2106.42 3157.93 2106.42 3247.19 2017.16 3247.19 1838.66 3068.68 1838.66"/><polyline class="cls-3" points="3156.97 2106.42 3156.97 1927.9 3068.2 1927.9"/><polyline class="cls-3" points="3782.71 1570.9 3694.43 1570.9 3694.43 1396.81"/><polygon class="cls-3" points="3694.43 1392.39 3605.17 1481.64 3605.17 1660.15 3783.68 1660.15 3872.93 1570.9 3872.93 1392.39 3694.43 1392.39"/><polyline class="cls-3" points="3782.71 1660.15 3782.71 1481.64 3693.94 1481.64"/><polyline class="cls-3" points="3514.95 1660.15 3426.66 1660.15 3426.66 1486.07"/><polygon class="cls-3" points="3426.66 1481.64 3337.41 1570.9 3337.41 1749.4 3515.92 1749.4 3605.17 1660.15 3605.17 1481.64 3426.66 1481.64"/><polyline class="cls-3" points="3514.95 1749.4 3514.95 1570.89 3426.18 1570.89"/><polyline class="cls-3" points="3247.19 1749.4 3158.9 1749.4 3158.9 1575.32"/><polygon class="cls-3" points="3158.9 1570.9 3069.65 1660.15 3069.65 1838.66 3248.16 1838.66 3337.41 1749.4 3337.41 1570.9 3158.9 1570.9"/><polyline class="cls-3" points="3247.19 1838.66 3247.19 1660.14 3158.42 1660.14"/><polyline class="cls-3" points="2889.2 2106.42 2800.92 2106.42 2800.92 1932.34"/><polygon class="cls-3" points="2800.92 1927.91 2711.66 2017.16 2711.66 2195.67 2890.17 2195.67 2979.43 2106.42 2979.43 1927.91 2800.92 1927.91"/><polyline class="cls-3" points="2889.2 2195.67 2889.2 2017.16 2800.43 2017.16"/><polyline class="cls-3" points="2621.44 2195.67 2533.16 2195.67 2533.16 2021.59"/><polygon class="cls-3" points="2533.16 2017.16 2443.9 2106.42 2443.9 2284.93 2622.41 2284.93 2711.66 2195.67 2711.66 2017.16 2533.16 2017.16"/><polyline class="cls-3" points="2621.44 2284.93 2621.44 2106.41 2532.67 2106.41"/><polyline class="cls-3" points="2353.68 2284.93 2265.39 2284.93 2265.39 2110.84"/><polygon class="cls-3" points="2265.39 2106.42 2176.14 2195.67 2176.14 2374.18 2354.65 2374.18 2443.9 2284.93 2443.9 2106.42 2265.39 2106.42"/><polyline class="cls-3" points="2979.43 1838.66 2891.14 1838.66 2891.14 1664.58"/><polygon class="cls-3" points="2891.14 1660.15 2801.89 1749.4 2801.89 1927.91 2980.39 1927.91 3069.65 1838.66 3069.65 1660.15 2891.14 1660.15"/><polyline class="cls-3" points="2979.43 1927.91 2979.43 1749.4 2890.66 1749.4"/><polyline class="cls-3" points="2711.66 1927.91 2623.38 1927.91 2623.38 1753.83"/><polygon class="cls-3" points="2623.38 1749.4 2534.13 1838.66 2534.13 2017.16 2712.63 2017.16 2801.89 1927.91 2801.89 1749.4 2623.38 1749.4"/><polyline class="cls-3" points="2711.66 2017.16 2711.66 1838.65 2622.89 1838.65"/><polyline class="cls-3" points="2443.9 2017.16 2355.62 2017.16 2355.62 1843.08"/><polygon class="cls-3" points="2355.62 1838.66 2266.36 1927.91 2266.36 2106.42 2444.87 2106.42 2534.13 2017.16 2534.13 1838.66 2355.62 1838.66"/><polyline class="cls-3" points="2443.9 2106.42 2443.9 1927.9 2355.13 1927.9"/><polyline class="cls-3" points="2176.14 2106.42 2087.86 2106.42 2087.86 1932.34"/><polygon class="cls-3" points="2087.86 1927.91 1998.6 2017.16 1998.6 2195.67 2177.11 2195.67 2266.36 2106.42 2266.36 1927.91 2087.86 1927.91"/><polyline class="cls-3" points="2176.14 2195.67 2176.14 2017.16 2087.37 2017.16"/><polyline class="cls-3" points="3872.93 1303.13 3784.65 1303.13 3784.65 1129.05"/><polygon class="cls-3" points="3784.65 1124.63 3695.39 1213.88 3695.39 1392.39 3873.9 1392.39 3963.16 1303.13 3963.16 1124.63 3784.65 1124.63"/><polyline class="cls-3" points="3872.93 1392.39 3872.93 1213.88 3784.16 1213.88"/><polyline class="cls-3" points="3605.17 1392.39 3516.89 1392.39 3516.89 1218.31"/><polygon class="cls-3" points="3516.89 1213.88 3427.63 1303.13 3427.63 1481.64 3606.14 1481.64 3695.39 1392.39 3695.39 1213.88 3516.89 1213.88"/><polyline class="cls-3" points="3605.17 1481.64 3605.17 1303.13 3516.4 1303.13"/><polyline class="cls-3" points="3337.41 1481.64 3249.12 1481.64 3249.12 1307.56"/><polygon class="cls-3" points="3249.12 1303.13 3159.87 1392.39 3159.87 1570.9 3338.38 1570.9 3427.63 1481.64 3427.63 1303.13 3249.12 1303.13"/><polyline class="cls-3" points="3337.41 1570.9 3337.41 1392.38 3248.64 1392.38"/><polyline class="cls-3" points="3069.65 1570.9 2981.36 1570.9 2981.36 1396.81"/><polygon class="cls-3" points="2981.36 1392.39 2892.11 1481.64 2892.11 1660.15 3070.62 1660.15 3159.87 1570.9 3159.87 1392.39 2981.36 1392.39"/><polyline class="cls-3" points="3069.65 1660.15 3069.65 1481.64 2980.88 1481.64"/><polygon class="cls-3" points="3874.87 856.87 3785.61 946.12 3785.61 1124.63 3964.12 1124.63 4053.38 1035.37 4053.38 856.87 3874.87 856.87"/><polyline class="cls-3" points="3695.39 1124.63 3607.11 1124.63 3607.11 950.54"/><polygon class="cls-3" points="3607.11 946.12 3517.85 1035.37 3517.85 1213.88 3696.36 1213.88 3785.61 1124.63 3785.61 946.12 3607.11 946.12"/><polyline class="cls-3" points="3695.39 1213.88 3695.39 1035.37 3606.62 1035.37"/><polyline class="cls-3" points="3427.63 1213.88 3339.35 1213.88 3339.35 1039.8"/><polygon class="cls-3" points="3339.35 1035.37 3250.09 1124.63 3250.09 1303.13 3428.6 1303.13 3517.85 1213.88 3517.85 1035.37 3339.35 1035.37"/><polyline class="cls-3" points="3427.63 1303.13 3427.63 1124.62 3338.86 1124.62"/><polyline class="cls-3" points="3159.87 1303.13 3071.59 1303.13 3071.59 1129.05"/><polygon class="cls-3" points="3071.59 1124.63 2982.33 1213.88 2982.33 1392.39 3160.84 1392.39 3250.09 1303.13 3250.09 1124.63 3071.59 1124.63"/><polyline class="cls-3" points="3159.87 1392.39 3159.87 1213.88 3071.1 1213.88"/><polyline class="cls-3" points="2801.89 1660.15 2713.6 1660.15 2713.6 1486.07"/><polygon class="cls-3" points="2713.6 1481.64 2624.35 1570.9 2624.35 1749.4 2802.86 1749.4 2892.11 1660.15 2892.11 1481.64 2713.6 1481.64"/><polyline class="cls-3" points="2801.89 1749.4 2801.89 1570.89 2713.12 1570.89"/><polyline class="cls-3" points="2534.13 1749.4 2445.84 1749.4 2445.84 1575.32"/><polygon class="cls-3" points="2445.84 1570.9 2356.59 1660.15 2356.59 1838.66 2535.09 1838.66 2624.35 1749.4 2624.35 1570.9 2445.84 1570.9"/><polyline class="cls-3" points="2534.13 1838.66 2534.13 1660.14 2445.36 1660.14"/><polyline class="cls-3" points="2266.36 1838.66 2178.08 1838.66 2178.08 1664.58"/><polygon class="cls-3" points="2178.08 1660.15 2088.82 1749.4 2088.82 1927.91 2267.33 1927.91 2356.59 1838.66 2356.59 1660.15 2178.08 1660.15"/><polyline class="cls-3" points="2266.36 1927.91 2266.36 1749.4 2177.59 1749.4"/><polyline class="cls-3" points="1998.6 1927.91 1910.32 1927.91 1910.32 1753.83"/><polygon class="cls-3" points="1910.32 1749.4 1821.06 1838.66 1821.06 2017.16 1999.57 2017.16 2088.82 1927.91 2088.82 1749.4 1910.32 1749.4"/><polyline class="cls-3" points="1998.6 2017.16 1998.6 1838.65 1909.83 1838.65"/><polyline class="cls-3" points="2892.11 1392.39 2803.82 1392.39 2803.82 1218.31"/><polygon class="cls-3" points="2803.82 1213.88 2714.57 1303.13 2714.57 1481.64 2893.08 1481.64 2982.33 1392.39 2982.33 1213.88 2803.82 1213.88"/><polyline class="cls-3" points="2892.11 1481.64 2892.11 1303.13 2803.34 1303.13"/><polyline class="cls-3" points="2624.35 1481.64 2536.06 1481.64 2536.06 1307.56"/><polygon class="cls-3" points="2536.06 1303.13 2446.81 1392.39 2446.81 1570.9 2625.32 1570.9 2714.57 1481.64 2714.57 1303.13 2536.06 1303.13"/><polyline class="cls-3" points="2624.35 1570.9 2624.35 1392.38 2535.58 1392.38"/><polyline class="cls-3" points="2356.59 1570.9 2268.3 1570.9 2268.3 1396.81"/><polygon class="cls-3" points="2268.3 1392.39 2179.05 1481.64 2179.05 1660.15 2357.55 1660.15 2446.81 1570.9 2446.81 1392.39 2268.3 1392.39"/><polyline class="cls-3" points="2356.59 1660.15 2356.59 1481.64 2267.82 1481.64"/><polyline class="cls-3" points="2088.82 1660.15 2000.54 1660.15 2000.54 1486.07"/><polygon class="cls-3" points="2000.54 1481.64 1911.29 1570.9 1911.29 1749.4 2089.79 1749.4 2179.05 1660.15 2179.05 1481.64 2000.54 1481.64"/><polyline class="cls-3" points="2088.82 1749.4 2088.82 1570.89 2000.05 1570.89"/><polyline class="cls-3" points="3785.61 856.87 3697.33 856.87 3697.33 682.78"/><polygon class="cls-3" points="3697.33 678.36 3608.08 767.61 3608.08 946.12 3786.58 946.12 3875.84 856.87 3875.84 678.36 3697.33 678.36"/><polyline class="cls-3" points="3785.61 946.12 3785.61 767.61 3696.85 767.61"/><polyline class="cls-3" points="3517.85 946.12 3429.57 946.12 3429.57 772.04"/><polygon class="cls-3" points="3429.57 767.61 3340.32 856.87 3340.32 1035.37 3518.82 1035.37 3608.08 946.12 3608.08 767.61 3429.57 767.61"/><polyline class="cls-3" points="3517.85 1035.37 3517.85 856.86 3429.08 856.86"/><polyline class="cls-3" points="3250.09 1035.37 3161.81 1035.37 3161.81 861.29"/><polygon class="cls-3" points="3161.81 856.87 3072.55 946.12 3072.55 1124.63 3251.06 1124.63 3340.32 1035.37 3340.32 856.87 3161.81 856.87"/><polyline class="cls-3" points="3250.09 1124.63 3250.09 946.11 3161.32 946.11"/><polyline class="cls-3" points="2982.33 1124.63 2894.05 1124.63 2894.05 950.54"/><polygon class="cls-3" points="2894.05 946.12 2804.79 1035.37 2804.79 1213.88 2983.3 1213.88 3072.55 1124.63 3072.55 946.12 2894.05 946.12"/><polyline class="cls-3" points="2982.33 1213.88 2982.33 1035.37 2893.56 1035.37"/><polyline class="cls-3" points="3875.84 589.1 3787.55 589.1 3787.55 415.02"/><polygon class="cls-3" points="3787.55 410.6 3698.3 499.85 3698.3 678.36 3876.81 678.36 3966.06 589.1 3966.06 410.6 3787.55 410.6"/><polyline class="cls-3" points="3875.84 678.36 3875.84 499.84 3787.07 499.84"/><polyline class="cls-3" points="3608.08 678.36 3519.79 678.36 3519.79 504.27"/><polygon class="cls-3" points="3519.79 499.85 3430.54 589.1 3430.54 767.61 3609.04 767.61 3698.3 678.36 3698.3 499.85 3519.79 499.85"/><polyline class="cls-3" points="3608.08 767.61 3608.08 589.1 3519.31 589.1"/><polyline class="cls-3" points="3340.32 767.61 3252.03 767.61 3252.03 593.53"/><polygon class="cls-3" points="3252.03 589.1 3162.78 678.36 3162.78 856.87 3341.28 856.87 3430.54 767.61 3430.54 589.1 3252.03 589.1"/><polyline class="cls-3" points="3340.32 856.87 3340.32 678.35 3251.55 678.35"/><polyline class="cls-3" points="3072.55 856.87 2984.27 856.87 2984.27 682.78"/><polygon class="cls-3" points="2984.27 678.36 2895.01 767.61 2895.01 946.12 3073.52 946.12 3162.78 856.87 3162.78 678.36 2984.27 678.36"/><polyline class="cls-3" points="3072.55 946.12 3072.55 767.61 2983.78 767.61"/><polyline class="cls-3" points="2714.57 1213.88 2626.28 1213.88 2626.28 1039.8"/><polygon class="cls-3" points="2626.28 1035.37 2537.03 1124.63 2537.03 1303.13 2715.54 1303.13 2804.79 1213.88 2804.79 1035.37 2626.28 1035.37"/><polyline class="cls-3" points="2714.57 1303.13 2714.57 1124.62 2625.8 1124.62"/><polyline class="cls-3" points="2446.81 1303.13 2358.52 1303.13 2358.52 1129.05"/><polygon class="cls-3" points="2358.52 1124.63 2269.27 1213.88 2269.27 1392.39 2447.78 1392.39 2537.03 1303.13 2537.03 1124.63 2358.52 1124.63"/><polyline class="cls-3" points="2446.81 1392.39 2446.81 1213.88 2358.04 1213.88"/><polyline class="cls-3" points="2179.05 1392.39 2090.76 1392.39 2090.76 1218.31"/><polygon class="cls-3" points="2090.76 1213.88 2001.51 1303.13 2001.51 1481.64 2180.01 1481.64 2269.27 1392.39 2269.27 1213.88 2090.76 1213.88"/><polyline class="cls-3" points="2179.05 1481.64 2179.05 1303.13 2090.28 1303.13"/><polyline class="cls-3" points="1911.29 1481.64 1823 1481.64 1823 1307.56"/><polygon class="cls-3" points="1823 1303.13 1733.75 1392.39 1733.75 1570.9 1912.25 1570.9 2001.51 1481.64 2001.51 1303.13 1823 1303.13"/><polyline class="cls-3" points="1911.29 1570.9 1911.29 1392.38 1822.52 1392.38"/><polyline class="cls-3" points="2804.79 946.12 2716.51 946.12 2716.51 772.04"/><polygon class="cls-3" points="2716.51 767.61 2627.25 856.87 2627.25 1035.37 2805.76 1035.37 2895.01 946.12 2895.01 767.61 2716.51 767.61"/><polyline class="cls-3" points="2804.79 1035.37 2804.79 856.86 2716.02 856.86"/><polyline class="cls-3" points="2537.03 1035.37 2448.74 1035.37 2448.74 861.29"/><polygon class="cls-3" points="2448.74 856.87 2359.49 946.12 2359.49 1124.63 2538 1124.63 2627.25 1035.37 2627.25 856.87 2448.74 856.87"/><polyline class="cls-3" points="2537.03 1124.63 2537.03 946.11 2448.26 946.11"/><polyline class="cls-3" points="2269.27 1124.63 2180.98 1124.63 2180.98 950.54"/><polygon class="cls-3" points="2180.98 946.12 2091.73 1035.37 2091.73 1213.88 2270.24 1213.88 2359.49 1124.63 2359.49 946.12 2180.98 946.12"/><polyline class="cls-3" points="2269.27 1213.88 2269.27 1035.37 2180.5 1035.37"/><polyline class="cls-3" points="2001.51 1213.88 1913.22 1213.88 1913.22 1039.8"/><polygon class="cls-3" points="1913.22 1035.37 1823.97 1124.63 1823.97 1303.13 2002.47 1303.13 2091.73 1213.88 2091.73 1035.37 1913.22 1035.37"/><polyline class="cls-3" points="2001.51 1303.13 2001.51 1124.62 1912.74 1124.62"/><polyline class="cls-3" points="3698.3 410.6 3610.01 410.6 3610.01 236.51"/><polygon class="cls-3" points="3610.01 232.09 3520.76 321.34 3520.76 499.85 3699.27 499.85 3788.52 410.6 3788.52 232.09 3610.01 232.09"/><polyline class="cls-3" points="3698.3 499.85 3698.3 321.34 3609.53 321.34"/><polyline class="cls-3" points="3430.54 499.85 3342.25 499.85 3342.25 325.77"/><polygon class="cls-3" points="3342.25 321.34 3253 410.6 3253 589.1 3431.51 589.1 3520.76 499.85 3520.76 321.34 3342.25 321.34"/><polyline class="cls-3" points="3430.54 589.1 3430.54 410.59 3341.77 410.59"/><polyline class="cls-3" points="3162.78 589.1 3074.49 589.1 3074.49 415.02"/><polygon class="cls-3" points="3074.49 410.6 2985.24 499.85 2985.24 678.36 3163.74 678.36 3253 589.1 3253 410.6 3074.49 410.6"/><polyline class="cls-3" points="3162.78 678.36 3162.78 499.84 3074.01 499.84"/><polyline class="cls-3" points="2895.01 678.36 2806.73 678.36 2806.73 504.27"/><polygon class="cls-3" points="2806.73 499.85 2717.47 589.1 2717.47 767.61 2895.98 767.61 2985.24 678.36 2985.24 499.85 2806.73 499.85"/><polyline class="cls-3" points="2895.01 767.61 2895.01 589.1 2806.24 589.1"/><polyline class="cls-3" points="3788.52 142.84 3700.24 142.84 3700.24 -31.25"/><polygon class="cls-3" points="3700.24 -35.67 3610.98 53.58 3610.98 232.09 3789.49 232.09 3878.74 142.84 3878.74 -35.67 3700.24 -35.67"/><polyline class="cls-3" points="3788.52 232.09 3788.52 53.58 3699.75 53.58"/><polyline class="cls-3" points="3520.76 232.09 3432.47 232.09 3432.47 58.01"/><polygon class="cls-3" points="3432.47 53.58 3343.22 142.84 3343.22 321.34 3521.73 321.34 3610.98 232.09 3610.98 53.58 3432.47 53.58"/><polyline class="cls-3" points="3520.76 321.34 3520.76 142.83 3431.99 142.83"/><polyline class="cls-3" points="3253 321.34 3164.71 321.34 3164.71 147.26"/><polygon class="cls-3" points="3164.71 142.84 3075.46 232.09 3075.46 410.6 3253.97 410.6 3343.22 321.34 3343.22 142.84 3164.71 142.84"/><polyline class="cls-3" points="3253 410.6 3253 232.08 3164.23 232.08"/><polyline class="cls-3" points="2985.24 410.6 2896.95 410.6 2896.95 236.51"/><polygon class="cls-3" points="2896.95 232.09 2807.7 321.34 2807.7 499.85 2986.2 499.85 3075.46 410.6 3075.46 232.09 2896.95 232.09"/><polyline class="cls-3" points="2985.24 499.85 2985.24 321.34 2896.47 321.34"/><polyline class="cls-3" points="2627.25 767.61 2538.97 767.61 2538.97 593.53"/><polygon class="cls-3" points="2538.97 589.1 2449.71 678.36 2449.71 856.87 2628.22 856.87 2717.47 767.61 2717.47 589.1 2538.97 589.1"/><polyline class="cls-3" points="2627.25 856.87 2627.25 678.35 2538.48 678.35"/><polyline class="cls-3" points="2359.49 856.87 2271.2 856.87 2271.2 682.78"/><polygon class="cls-3" points="2271.2 678.36 2181.95 767.61 2181.95 946.12 2360.46 946.12 2449.71 856.87 2449.71 678.36 2271.2 678.36"/><polyline class="cls-3" points="2359.49 946.12 2359.49 767.61 2270.72 767.61"/><polyline class="cls-3" points="2091.73 946.12 2003.44 946.12 2003.44 772.04"/><polygon class="cls-3" points="2003.44 767.61 1914.19 856.87 1914.19 1035.37 2092.7 1035.37 2181.95 946.12 2181.95 767.61 2003.44 767.61"/><polyline class="cls-3" points="2091.73 1035.37 2091.73 856.86 2002.96 856.86"/><polyline class="cls-3" points="1823.97 1035.37 1735.68 1035.37 1735.68 861.29"/><polygon class="cls-3" points="1735.68 856.87 1646.43 946.12 1646.43 1124.63 1824.94 1124.63 1914.19 1035.37 1914.19 856.87 1735.68 856.87"/><polyline class="cls-3" points="1823.97 1124.63 1823.97 946.11 1735.2 946.11"/><polyline class="cls-3" points="2717.47 499.85 2629.19 499.85 2629.19 325.77"/><polygon class="cls-3" points="2629.19 321.34 2539.93 410.6 2539.93 589.1 2718.44 589.1 2807.7 499.85 2807.7 321.34 2629.19 321.34"/><polyline class="cls-3" points="2717.47 589.1 2717.47 410.59 2628.7 410.59"/><polyline class="cls-3" points="2449.71 589.1 2361.43 589.1 2361.43 415.02"/><polygon class="cls-3" points="2361.43 410.6 2272.17 499.85 2272.17 678.36 2450.68 678.36 2539.93 589.1 2539.93 410.6 2361.43 410.6"/><polyline class="cls-3" points="2449.71 678.36 2449.71 499.84 2360.94 499.84"/><polyline class="cls-3" points="2181.95 678.36 2093.67 678.36 2093.67 504.27"/><polygon class="cls-3" points="2093.67 499.85 2004.41 589.1 2004.41 767.61 2182.92 767.61 2272.17 678.36 2272.17 499.85 2093.67 499.85"/><polyline class="cls-3" points="2181.95 767.61 2181.95 589.1 2093.18 589.1"/><polyline class="cls-3" points="1914.19 767.61 1825.9 767.61 1825.9 593.53"/><polygon class="cls-3" points="1825.9 589.1 1736.65 678.36 1736.65 856.87 1915.16 856.87 2004.41 767.61 2004.41 589.1 1825.9 589.1"/><polyline class="cls-3" points="1914.19 856.87 1914.19 678.35 1825.42 678.35"/><polygon class="cls-3" points="3522.7 -214.18 3433.44 -124.93 3433.44 53.58 3611.95 53.58 3701.2 -35.67 3701.2 -214.18 3522.7 -214.18"/><polyline class="cls-3" points="3610.98 53.58 3610.98 -124.93 3522.21 -124.93"/><polyline class="cls-3" points="3343.22 53.58 3254.93 53.58 3254.93 -120.5"/><polygon class="cls-3" points="3254.93 -124.93 3165.68 -35.67 3165.68 142.84 3344.19 142.84 3433.44 53.58 3433.44 -124.93 3254.93 -124.93"/><polyline class="cls-3" points="3343.22 142.84 3343.22 -35.68 3254.45 -35.68"/><polyline class="cls-3" points="3075.46 142.84 2987.17 142.84 2987.17 -31.25"/><polygon class="cls-3" points="2987.17 -35.67 2897.92 53.58 2897.92 232.09 3076.43 232.09 3165.68 142.84 3165.68 -35.67 2987.17 -35.67"/><polyline class="cls-3" points="3075.46 232.09 3075.46 53.58 2986.69 53.58"/><polyline class="cls-3" points="2807.7 232.09 2719.41 232.09 2719.41 58.01"/><polygon class="cls-3" points="2719.41 53.58 2630.16 142.84 2630.16 321.34 2808.66 321.34 2897.92 232.09 2897.92 53.58 2719.41 53.58"/><polyline class="cls-3" points="2807.7 321.34 2807.7 142.83 2718.93 142.83"/><polygon class="cls-3" points="2809.63 -214.18 2720.38 -124.93 2720.38 53.58 2898.89 53.58 2988.14 -35.67 2988.14 -214.18 2809.63 -214.18"/><polyline class="cls-3" points="2897.92 53.58 2897.92 -124.93 2809.15 -124.93"/><polyline class="cls-3" points="2539.93 321.34 2451.65 321.34 2451.65 147.26"/><polygon class="cls-3" points="2451.65 142.84 2362.4 232.09 2362.4 410.6 2540.9 410.6 2630.16 321.34 2630.16 142.84 2451.65 142.84"/><polyline class="cls-3" points="2539.93 410.6 2539.93 232.08 2451.16 232.08"/><polyline class="cls-3" points="2272.17 410.6 2183.89 410.6 2183.89 236.51"/><polygon class="cls-3" points="2183.89 232.09 2094.63 321.34 2094.63 499.85 2273.14 499.85 2362.4 410.6 2362.4 232.09 2183.89 232.09"/><polyline class="cls-3" points="2272.17 499.85 2272.17 321.34 2183.4 321.34"/><polyline class="cls-3" points="2004.41 499.85 1916.13 499.85 1916.13 325.77"/><polygon class="cls-3" points="1916.13 321.34 1826.87 410.6 1826.87 589.1 2005.38 589.1 2094.63 499.85 2094.63 321.34 1916.13 321.34"/><polyline class="cls-3" points="2004.41 589.1 2004.41 410.59 1915.64 410.59"/><polyline class="cls-3" points="1736.65 589.1 1648.37 589.1 1648.37 415.02"/><polygon class="cls-3" points="1648.37 410.6 1559.11 499.85 1559.11 678.36 1737.62 678.36 1826.87 589.1 1826.87 410.6 1648.37 410.6"/><polyline class="cls-3" points="1736.65 678.36 1736.65 499.84 1647.88 499.84"/><polyline class="cls-3" points="2630.16 53.58 2541.87 53.58 2541.87 -120.5"/><polygon class="cls-3" points="2541.87 -124.93 2452.62 -35.67 2452.62 142.84 2631.13 142.84 2720.38 53.58 2720.38 -124.93 2541.87 -124.93"/><polyline class="cls-3" points="2630.16 142.84 2630.16 -35.68 2541.39 -35.68"/><polyline class="cls-3" points="2362.4 142.84 2274.11 142.84 2274.11 -31.25"/><polygon class="cls-3" points="2274.11 -35.67 2184.86 53.58 2184.86 232.09 2363.36 232.09 2452.62 142.84 2452.62 -35.67 2274.11 -35.67"/><polyline class="cls-3" points="2362.4 232.09 2362.4 53.58 2273.63 53.58"/><polyline class="cls-3" points="2094.63 232.09 2006.35 232.09 2006.35 58.01"/><polygon class="cls-3" points="2006.35 53.58 1917.1 142.84 1917.1 321.34 2095.6 321.34 2184.86 232.09 2184.86 53.58 2006.35 53.58"/><polyline class="cls-3" points="2094.63 321.34 2094.63 142.83 2005.87 142.83"/><polyline class="cls-3" points="1826.87 321.34 1738.59 321.34 1738.59 147.26"/><polygon class="cls-3" points="1738.59 142.84 1649.33 232.09 1649.33 410.6 1827.84 410.6 1917.1 321.34 1917.1 142.84 1738.59 142.84"/><polyline class="cls-3" points="1826.87 410.6 1826.87 232.08 1738.1 232.08"/><polygon class="cls-3" points="2096.57 -214.18 2007.32 -124.93 2007.32 53.58 2185.82 53.58 2275.08 -35.67 2275.08 -214.18 2096.57 -214.18"/><polyline class="cls-3" points="2184.86 53.58 2184.86 -124.93 2096.09 -124.93"/><polyline class="cls-3" points="1917.1 53.58 1828.81 53.58 1828.81 -120.5"/><polygon class="cls-3" points="1828.81 -124.93 1739.56 -35.67 1739.56 142.84 1918.06 142.84 2007.32 53.58 2007.32 -124.93 1828.81 -124.93"/><polyline class="cls-3" points="1917.1 142.84 1917.1 -35.68 1828.33 -35.68"/><polyline class="cls-3" points="1649.33 142.84 1561.05 142.84 1561.05 -31.25"/><polygon class="cls-3" points="1561.05 -35.67 1471.79 53.58 1471.79 232.09 1650.3 232.09 1739.56 142.84 1739.56 -35.67 1561.05 -35.67"/><polyline class="cls-3" points="1649.33 232.09 1649.33 53.58 1560.56 53.58"/><polyline class="cls-3" points="1908.38 2195.67 1820.09 2195.67 1820.09 2021.59"/><polygon class="cls-3" points="1820.09 2017.16 1730.84 2106.42 1730.84 2284.93 1909.35 2284.93 1998.6 2195.67 1998.6 2017.16 1820.09 2017.16"/><polyline class="cls-3" points="1908.38 2284.93 1908.38 2106.41 1819.61 2106.41"/><polyline class="cls-3" points="1640.62 2284.93 1552.33 2284.93 1552.33 2110.84"/><polygon class="cls-3" points="1552.33 2106.42 1463.08 2195.67 1463.08 2374.18 1641.59 2374.18 1730.84 2284.93 1730.84 2106.42 1552.33 2106.42"/><polyline class="cls-3" points="1730.84 2017.16 1642.56 2017.16 1642.56 1843.08"/><polygon class="cls-3" points="1642.56 1838.66 1553.3 1927.91 1553.3 2106.42 1731.81 2106.42 1821.06 2017.16 1821.06 1838.66 1642.56 1838.66"/><polyline class="cls-3" points="1730.84 2106.42 1730.84 1927.9 1642.07 1927.9"/><polyline class="cls-3" points="1463.08 2106.42 1374.79 2106.42 1374.79 1932.34"/><polygon class="cls-3" points="1374.79 1927.91 1285.54 2017.16 1285.54 2195.67 1464.05 2195.67 1553.3 2106.42 1553.3 1927.91 1374.79 1927.91"/><polyline class="cls-3" points="1463.08 2195.67 1463.08 2017.16 1374.31 2017.16"/><polyline class="cls-3" points="1195.32 2195.67 1107.03 2195.67 1107.03 2021.59"/><polygon class="cls-3" points="1107.03 2017.16 1017.78 2106.42 1017.78 2284.93 1196.29 2284.93 1285.54 2195.67 1285.54 2017.16 1107.03 2017.16"/><polyline class="cls-3" points="1195.32 2284.93 1195.32 2106.41 1106.55 2106.41"/><polyline class="cls-3" points="927.56 2284.93 839.27 2284.93 839.27 2110.84"/><polygon class="cls-3" points="839.27 2106.42 750.02 2195.67 750.02 2374.18 928.52 2374.18 1017.78 2284.93 1017.78 2106.42 839.27 2106.42"/><polyline class="cls-3" points="1821.06 1749.4 1732.78 1749.4 1732.78 1575.32"/><polygon class="cls-3" points="1732.78 1570.9 1643.52 1660.15 1643.52 1838.66 1822.03 1838.66 1911.29 1749.4 1911.29 1570.9 1732.78 1570.9"/><polyline class="cls-3" points="1821.06 1838.66 1821.06 1660.14 1732.29 1660.14"/><polyline class="cls-3" points="1553.3 1838.66 1465.02 1838.66 1465.02 1664.58"/><polygon class="cls-3" points="1465.02 1660.15 1375.76 1749.4 1375.76 1927.91 1554.27 1927.91 1643.52 1838.66 1643.52 1660.15 1465.02 1660.15"/><polyline class="cls-3" points="1553.3 1927.91 1553.3 1749.4 1464.53 1749.4"/><polyline class="cls-3" points="1285.54 1927.91 1197.25 1927.91 1197.25 1753.83"/><polygon class="cls-3" points="1197.25 1749.4 1108 1838.66 1108 2017.16 1286.51 2017.16 1375.76 1927.91 1375.76 1749.4 1197.25 1749.4"/><polyline class="cls-3" points="1285.54 2017.16 1285.54 1838.65 1196.77 1838.65"/><polyline class="cls-3" points="1017.78 2017.16 929.49 2017.16 929.49 1843.08"/><polygon class="cls-3" points="929.49 1838.66 840.24 1927.91 840.24 2106.42 1018.75 2106.42 1108 2017.16 1108 1838.66 929.49 1838.66"/><polyline class="cls-3" points="1017.78 2106.42 1017.78 1927.9 929.01 1927.9"/><polyline class="cls-3" points="750.02 2106.42 661.73 2106.42 661.73 1932.34"/><polygon class="cls-3" points="661.73 1927.91 572.48 2017.16 572.48 2195.67 750.99 2195.67 840.24 2106.42 840.24 1927.91 661.73 1927.91"/><polyline class="cls-3" points="750.02 2195.67 750.02 2017.16 661.25 2017.16"/><polyline class="cls-3" points="482.25 2195.67 393.97 2195.67 393.97 2021.59"/><polygon class="cls-3" points="393.97 2017.16 304.72 2106.42 304.72 2284.93 483.22 2284.93 572.48 2195.67 572.48 2017.16 393.97 2017.16"/><polyline class="cls-3" points="482.25 2284.93 482.25 2106.41 393.49 2106.41"/><polyline class="cls-3" points="214.49 2284.93 126.21 2284.93 126.21 2110.84"/><polygon class="cls-3" points="126.21 2106.42 36.95 2195.67 36.95 2374.18 215.46 2374.18 304.72 2284.93 304.72 2106.42 126.21 2106.42"/><polyline class="cls-3" points="1643.52 1570.9 1555.24 1570.9 1555.24 1396.81"/><polygon class="cls-3" points="1555.24 1392.39 1465.98 1481.64 1465.98 1660.15 1644.49 1660.15 1733.75 1570.9 1733.75 1392.39 1555.24 1392.39"/><polyline class="cls-3" points="1643.52 1660.15 1643.52 1481.64 1554.75 1481.64"/><polyline class="cls-3" points="1375.76 1660.15 1287.48 1660.15 1287.48 1486.07"/><polygon class="cls-3" points="1287.48 1481.64 1198.22 1570.9 1198.22 1749.4 1376.73 1749.4 1465.98 1660.15 1465.98 1481.64 1287.48 1481.64"/><polyline class="cls-3" points="1375.76 1749.4 1375.76 1570.89 1286.99 1570.89"/><polyline class="cls-3" points="1108 1749.4 1019.72 1749.4 1019.72 1575.32"/><polygon class="cls-3" points="1019.72 1570.9 930.46 1660.15 930.46 1838.66 1108.97 1838.66 1198.22 1749.4 1198.22 1570.9 1019.72 1570.9"/><polyline class="cls-3" points="1108 1838.66 1108 1660.14 1019.23 1660.14"/><polyline class="cls-3" points="840.24 1838.66 751.95 1838.66 751.95 1664.58"/><polygon class="cls-3" points="751.95 1660.15 662.7 1749.4 662.7 1927.91 841.21 1927.91 930.46 1838.66 930.46 1660.15 751.95 1660.15"/><polyline class="cls-3" points="840.24 1927.91 840.24 1749.4 751.47 1749.4"/><polyline class="cls-3" points="1733.75 1303.13 1645.46 1303.13 1645.46 1129.05"/><polygon class="cls-3" points="1645.46 1124.63 1556.21 1213.88 1556.21 1392.39 1734.71 1392.39 1823.97 1303.13 1823.97 1124.63 1645.46 1124.63"/><polyline class="cls-3" points="1733.75 1392.39 1733.75 1213.88 1644.98 1213.88"/><polyline class="cls-3" points="1465.98 1392.39 1377.7 1392.39 1377.7 1218.31"/><polygon class="cls-3" points="1377.7 1213.88 1288.44 1303.13 1288.44 1481.64 1466.95 1481.64 1556.21 1392.39 1556.21 1213.88 1377.7 1213.88"/><polyline class="cls-3" points="1465.98 1481.64 1465.98 1303.13 1377.21 1303.13"/><polyline class="cls-3" points="1198.22 1481.64 1109.94 1481.64 1109.94 1307.56"/><polygon class="cls-3" points="1109.94 1303.13 1020.68 1392.39 1020.68 1570.9 1199.19 1570.9 1288.44 1481.64 1288.44 1303.13 1109.94 1303.13"/><polyline class="cls-3" points="1198.22 1570.9 1198.22 1392.38 1109.45 1392.38"/><polyline class="cls-3" points="930.46 1570.9 842.17 1570.9 842.17 1396.81"/><polygon class="cls-3" points="842.17 1392.39 752.92 1481.64 752.92 1660.15 931.43 1660.15 1020.68 1570.9 1020.68 1392.39 842.17 1392.39"/><polyline class="cls-3" points="930.46 1660.15 930.46 1481.64 841.69 1481.64"/><polyline class="cls-3" points="572.48 1927.91 484.19 1927.91 484.19 1753.83"/><polygon class="cls-3" points="484.19 1749.4 394.94 1838.66 394.94 2017.16 573.45 2017.16 662.7 1927.91 662.7 1749.4 484.19 1749.4"/><polyline class="cls-3" points="572.48 2017.16 572.48 1838.65 483.71 1838.65"/><polyline class="cls-3" points="304.72 2017.16 216.43 2017.16 216.43 1843.08"/><polygon class="cls-3" points="216.43 1838.66 127.18 1927.91 127.18 2106.42 305.68 2106.42 394.94 2017.16 394.94 1838.66 216.43 1838.66"/><polyline class="cls-3" points="304.72 2106.42 304.72 1927.9 215.95 1927.9"/><polyline class="cls-3" points="36.95 2106.42 -51.33 2106.42 -51.33 1932.34"/><polygon class="cls-3" points="-51.33 1927.91 -140.59 2017.16 -140.59 2195.67 37.92 2195.67 127.18 2106.42 127.18 1927.91 -51.33 1927.91"/><polyline class="cls-3" points="36.95 2195.67 36.95 2017.16 -51.81 2017.16"/><polyline class="cls-3" points="662.7 1660.15 574.41 1660.15 574.41 1486.07"/><polygon class="cls-3" points="574.41 1481.64 485.16 1570.9 485.16 1749.4 663.67 1749.4 752.92 1660.15 752.92 1481.64 574.41 1481.64"/><polyline class="cls-3" points="662.7 1749.4 662.7 1570.89 573.93 1570.89"/><polyline class="cls-3" points="394.94 1749.4 306.65 1749.4 306.65 1575.32"/><polygon class="cls-3" points="306.65 1570.9 217.4 1660.15 217.4 1838.66 395.91 1838.66 485.16 1749.4 485.16 1570.9 306.65 1570.9"/><polyline class="cls-3" points="394.94 1838.66 394.94 1660.14 306.17 1660.14"/><polyline class="cls-3" points="127.18 1838.66 38.89 1838.66 38.89 1664.58"/><polygon class="cls-3" points="38.89 1660.15 -50.36 1749.4 -50.36 1927.91 128.15 1927.91 217.4 1838.66 217.4 1660.15 38.89 1660.15"/><polyline class="cls-3" points="127.18 1927.91 127.18 1749.4 38.41 1749.4"/><polyline class="cls-3" points="1556.21 1124.63 1467.92 1124.63 1467.92 950.54"/><polygon class="cls-3" points="1467.92 946.12 1378.67 1035.37 1378.67 1213.88 1557.17 1213.88 1646.43 1124.63 1646.43 946.12 1467.92 946.12"/><polyline class="cls-3" points="1556.21 1213.88 1556.21 1035.37 1467.44 1035.37"/><polyline class="cls-3" points="1288.44 1213.88 1200.16 1213.88 1200.16 1039.8"/><polygon class="cls-3" points="1200.16 1035.37 1110.9 1124.63 1110.9 1303.13 1289.41 1303.13 1378.67 1213.88 1378.67 1035.37 1200.16 1035.37"/><polyline class="cls-3" points="1288.44 1303.13 1288.44 1124.62 1199.67 1124.62"/><polyline class="cls-3" points="1020.68 1303.13 932.4 1303.13 932.4 1129.05"/><polygon class="cls-3" points="932.4 1124.63 843.14 1213.88 843.14 1392.39 1021.65 1392.39 1110.9 1303.13 1110.9 1124.63 932.4 1124.63"/><polyline class="cls-3" points="1020.68 1392.39 1020.68 1213.88 931.91 1213.88"/><polyline class="cls-3" points="752.92 1392.39 664.64 1392.39 664.64 1218.31"/><polygon class="cls-3" points="664.64 1213.88 575.38 1303.13 575.38 1481.64 753.89 1481.64 843.14 1392.39 843.14 1213.88 664.64 1213.88"/><polyline class="cls-3" points="752.92 1481.64 752.92 1303.13 664.15 1303.13"/><polyline class="cls-3" points="1646.43 856.87 1558.14 856.87 1558.14 682.78"/><polygon class="cls-3" points="1558.14 678.36 1468.89 767.61 1468.89 946.12 1647.4 946.12 1736.65 856.87 1736.65 678.36 1558.14 678.36"/><polyline class="cls-3" points="1646.43 946.12 1646.43 767.61 1557.66 767.61"/><polyline class="cls-3" points="1378.67 946.12 1290.38 946.12 1290.38 772.04"/><polygon class="cls-3" points="1290.38 767.61 1201.13 856.87 1201.13 1035.37 1379.63 1035.37 1468.89 946.12 1468.89 767.61 1290.38 767.61"/><polyline class="cls-3" points="1378.67 1035.37 1378.67 856.86 1289.9 856.86"/><polyline class="cls-3" points="1110.9 1035.37 1022.62 1035.37 1022.62 861.29"/><polygon class="cls-3" points="1022.62 856.87 933.37 946.12 933.37 1124.63 1111.87 1124.63 1201.13 1035.37 1201.13 856.87 1022.62 856.87"/><polyline class="cls-3" points="1110.9 1124.63 1110.9 946.11 1022.14 946.11"/><polyline class="cls-3" points="843.14 1124.63 754.86 1124.63 754.86 950.54"/><polygon class="cls-3" points="754.86 946.12 665.6 1035.37 665.6 1213.88 844.11 1213.88 933.37 1124.63 933.37 946.12 754.86 946.12"/><polyline class="cls-3" points="843.14 1213.88 843.14 1035.37 754.37 1035.37"/><polyline class="cls-3" points="485.16 1481.64 396.88 1481.64 396.88 1307.56"/><polygon class="cls-3" points="396.88 1303.13 307.62 1392.39 307.62 1570.9 486.13 1570.9 575.38 1481.64 575.38 1303.13 396.88 1303.13"/><polyline class="cls-3" points="485.16 1570.9 485.16 1392.38 396.39 1392.38"/><polyline class="cls-3" points="217.4 1570.9 129.11 1570.9 129.11 1396.81"/><polygon class="cls-3" points="129.11 1392.39 39.86 1481.64 39.86 1660.15 218.37 1660.15 307.62 1570.9 307.62 1392.39 129.11 1392.39"/><polyline class="cls-3" points="217.4 1660.15 217.4 1481.64 128.63 1481.64"/><polygon class="cls-3" points="-138.65 1481.64 -227.9 1570.9 -227.9 1749.4 -49.4 1749.4 39.86 1660.15 39.86 1481.64 -138.65 1481.64"/><polyline class="cls-3" points="575.38 1213.88 487.1 1213.88 487.1 1039.8"/><polygon class="cls-3" points="487.1 1035.37 397.84 1124.63 397.84 1303.13 576.35 1303.13 665.6 1213.88 665.6 1035.37 487.1 1035.37"/><polyline class="cls-3" points="575.38 1303.13 575.38 1124.62 486.61 1124.62"/><polyline class="cls-3" points="307.62 1303.13 219.34 1303.13 219.34 1129.05"/><polygon class="cls-3" points="219.34 1124.63 130.08 1213.88 130.08 1392.39 308.59 1392.39 397.84 1303.13 397.84 1124.63 219.34 1124.63"/><polyline class="cls-3" points="307.62 1392.39 307.62 1213.88 218.85 1213.88"/><polyline class="cls-3" points="39.86 1392.39 -48.43 1392.39 -48.43 1218.31"/><polygon class="cls-3" points="-48.43 1213.88 -137.68 1303.13 -137.68 1481.64 40.83 1481.64 130.08 1392.39 130.08 1213.88 -48.43 1213.88"/><polyline class="cls-3" points="39.86 1481.64 39.86 1303.13 -48.91 1303.13"/><polyline class="cls-3" points="1468.89 678.36 1380.6 678.36 1380.6 504.27"/><polygon class="cls-3" points="1380.6 499.85 1291.35 589.1 1291.35 767.61 1469.86 767.61 1559.11 678.36 1559.11 499.85 1380.6 499.85"/><polyline class="cls-3" points="1468.89 767.61 1468.89 589.1 1380.12 589.1"/><polyline class="cls-3" points="1201.13 767.61 1112.84 767.61 1112.84 593.53"/><polygon class="cls-3" points="1112.84 589.1 1023.59 678.36 1023.59 856.87 1202.1 856.87 1291.35 767.61 1291.35 589.1 1112.84 589.1"/><polyline class="cls-3" points="1201.13 856.87 1201.13 678.35 1112.36 678.35"/><polyline class="cls-3" points="933.37 856.87 845.08 856.87 845.08 682.78"/><polygon class="cls-3" points="845.08 678.36 755.83 767.61 755.83 946.12 934.33 946.12 1023.59 856.87 1023.59 678.36 845.08 678.36"/><polyline class="cls-3" points="933.37 946.12 933.37 767.61 844.6 767.61"/><polyline class="cls-3" points="665.6 946.12 577.32 946.12 577.32 772.04"/><polygon class="cls-3" points="577.32 767.61 488.06 856.87 488.06 1035.37 666.57 1035.37 755.83 946.12 755.83 767.61 577.32 767.61"/><polyline class="cls-3" points="665.6 1035.37 665.6 856.86 576.84 856.86"/><polyline class="cls-3" points="1559.11 410.6 1470.83 410.6 1470.83 236.51"/><polygon class="cls-3" points="1470.83 232.09 1381.57 321.34 1381.57 499.85 1560.08 499.85 1649.33 410.6 1649.33 232.09 1470.83 232.09"/><polyline class="cls-3" points="1559.11 499.85 1559.11 321.34 1470.34 321.34"/><polyline class="cls-3" points="1291.35 499.85 1203.06 499.85 1203.06 325.77"/><polygon class="cls-3" points="1203.06 321.34 1113.81 410.6 1113.81 589.1 1292.32 589.1 1381.57 499.85 1381.57 321.34 1203.06 321.34"/><polyline class="cls-3" points="1291.35 589.1 1291.35 410.59 1202.58 410.59"/><polyline class="cls-3" points="1023.59 589.1 935.3 589.1 935.3 415.02"/><polygon class="cls-3" points="935.3 410.6 846.05 499.85 846.05 678.36 1024.56 678.36 1113.81 589.1 1113.81 410.6 935.3 410.6"/><polyline class="cls-3" points="1023.59 678.36 1023.59 499.84 934.82 499.84"/><polyline class="cls-3" points="755.83 678.36 667.54 678.36 667.54 504.27"/><polygon class="cls-3" points="667.54 499.85 578.29 589.1 578.29 767.61 756.79 767.61 846.05 678.36 846.05 499.85 667.54 499.85"/><polyline class="cls-3" points="755.83 767.61 755.83 589.1 667.06 589.1"/><polyline class="cls-3" points="397.84 1035.37 309.56 1035.37 309.56 861.29"/><polygon class="cls-3" points="309.56 856.87 220.3 946.12 220.3 1124.63 398.81 1124.63 488.06 1035.37 488.06 856.87 309.56 856.87"/><polyline class="cls-3" points="397.84 1124.63 397.84 946.11 309.07 946.11"/><polyline class="cls-3" points="130.08 1124.63 41.8 1124.63 41.8 950.54"/><polygon class="cls-3" points="41.8 946.12 -47.46 1035.37 -47.46 1213.88 131.05 1213.88 220.3 1124.63 220.3 946.12 41.8 946.12"/><polyline class="cls-3" points="130.08 1213.88 130.08 1035.37 41.31 1035.37"/><polyline class="cls-3" points="488.06 767.61 399.78 767.61 399.78 593.53"/><polygon class="cls-3" points="399.78 589.1 310.53 678.36 310.53 856.87 489.03 856.87 578.29 767.61 578.29 589.1 399.78 589.1"/><polyline class="cls-3" points="488.06 856.87 488.06 678.35 399.3 678.35"/><polyline class="cls-3" points="220.3 856.87 132.02 856.87 132.02 682.78"/><polygon class="cls-3" points="132.02 678.36 42.76 767.61 42.76 946.12 221.27 946.12 310.53 856.87 310.53 678.36 132.02 678.36"/><polyline class="cls-3" points="220.3 946.12 220.3 767.61 131.53 767.61"/><polygon class="cls-3" points="-135.74 767.61 -225 856.87 -225 1035.37 -46.49 1035.37 42.76 946.12 42.76 767.61 -135.74 767.61"/><polyline class="cls-3" points="1381.57 232.09 1293.29 232.09 1293.29 58.01"/><polygon class="cls-3" points="1293.29 53.58 1204.03 142.84 1204.03 321.34 1382.54 321.34 1471.79 232.09 1471.79 53.58 1293.29 53.58"/><polyline class="cls-3" points="1381.57 321.34 1381.57 142.83 1292.8 142.83"/><polyline class="cls-3" points="1113.81 321.34 1025.53 321.34 1025.53 147.26"/><polygon class="cls-3" points="1025.53 142.84 936.27 232.09 936.27 410.6 1114.78 410.6 1204.03 321.34 1204.03 142.84 1025.53 142.84"/><polyline class="cls-3" points="1113.81 410.6 1113.81 232.08 1025.04 232.08"/><polyline class="cls-3" points="846.05 410.6 757.76 410.6 757.76 236.51"/><polygon class="cls-3" points="757.76 232.09 668.51 321.34 668.51 499.85 847.02 499.85 936.27 410.6 936.27 232.09 757.76 232.09"/><polyline class="cls-3" points="846.05 499.85 846.05 321.34 757.28 321.34"/><polyline class="cls-3" points="578.29 499.85 490 499.85 490 325.77"/><polygon class="cls-3" points="490 321.34 400.75 410.6 400.75 589.1 579.26 589.1 668.51 499.85 668.51 321.34 490 321.34"/><polyline class="cls-3" points="578.29 589.1 578.29 410.59 489.52 410.59"/><polygon class="cls-3" points="1383.51 -214.18 1294.26 -124.93 1294.26 53.58 1472.76 53.58 1562.02 -35.67 1562.02 -214.18 1383.51 -214.18"/><polyline class="cls-3" points="1471.79 53.58 1471.79 -124.93 1383.02 -124.93"/><polyline class="cls-3" points="1204.03 53.58 1115.75 53.58 1115.75 -120.5"/><polygon class="cls-3" points="1115.75 -124.93 1026.49 -35.67 1026.49 142.84 1205 142.84 1294.26 53.58 1294.26 -124.93 1115.75 -124.93"/><polyline class="cls-3" points="1204.03 142.84 1204.03 -35.68 1115.26 -35.68"/><polyline class="cls-3" points="936.27 142.84 847.99 142.84 847.99 -31.25"/><polygon class="cls-3" points="847.99 -35.67 758.73 53.58 758.73 232.09 937.24 232.09 1026.49 142.84 1026.49 -35.67 847.99 -35.67"/><polyline class="cls-3" points="936.27 232.09 936.27 53.58 847.5 53.58"/><polyline class="cls-3" points="668.51 232.09 580.22 232.09 580.22 58.01"/><polygon class="cls-3" points="580.22 53.58 490.97 142.84 490.97 321.34 669.48 321.34 758.73 232.09 758.73 53.58 580.22 53.58"/><polyline class="cls-3" points="668.51 321.34 668.51 142.83 579.74 142.83"/><polyline class="cls-3" points="310.53 589.1 222.24 589.1 222.24 415.02"/><polygon class="cls-3" points="222.24 410.6 132.99 499.85 132.99 678.36 311.49 678.36 400.75 589.1 400.75 410.6 222.24 410.6"/><polyline class="cls-3" points="310.53 678.36 310.53 499.84 221.76 499.84"/><polyline class="cls-3" points="42.76 678.36 -45.52 678.36 -45.52 504.27"/><polygon class="cls-3" points="-45.52 499.85 -134.78 589.1 -134.78 767.61 43.73 767.61 132.99 678.36 132.99 499.85 -45.52 499.85"/><polyline class="cls-3" points="42.76 767.61 42.76 589.1 -46.01 589.1"/><polyline class="cls-3" points="400.75 321.34 312.46 321.34 312.46 147.26"/><polygon class="cls-3" points="312.46 142.84 223.21 232.09 223.21 410.6 401.72 410.6 490.97 321.34 490.97 142.84 312.46 142.84"/><polyline class="cls-3" points="400.75 410.6 400.75 232.08 311.98 232.08"/><polyline class="cls-3" points="132.99 410.6 44.7 410.6 44.7 236.51"/><polygon class="cls-3" points="44.7 232.09 -44.55 321.34 -44.55 499.85 133.96 499.85 223.21 410.6 223.21 232.09 44.7 232.09"/><polyline class="cls-3" points="132.99 499.85 132.99 321.34 44.22 321.34"/><polygon class="cls-3" points="670.45 -214.18 581.19 -124.93 581.19 53.58 759.7 53.58 848.95 -35.67 848.95 -214.18 670.45 -214.18"/><polyline class="cls-3" points="758.73 53.58 758.73 -124.93 669.96 -124.93"/><polyline class="cls-3" points="490.97 53.58 402.69 53.58 402.69 -120.5"/><polygon class="cls-3" points="402.69 -124.93 313.43 -35.67 313.43 142.84 491.94 142.84 581.19 53.58 581.19 -124.93 402.69 -124.93"/><polyline class="cls-3" points="490.97 142.84 490.97 -35.68 402.2 -35.68"/><polyline class="cls-3" points="223.21 142.84 134.92 142.84 134.92 -31.25"/><polygon class="cls-3" points="134.92 -35.67 45.67 53.58 45.67 232.09 224.18 232.09 313.43 142.84 313.43 -35.67 134.92 -35.67"/><polyline class="cls-3" points="223.21 232.09 223.21 53.58 134.44 53.58"/><polygon class="cls-3" points="-132.84 53.58 -222.09 142.84 -222.09 321.34 -43.58 321.34 45.67 232.09 45.67 53.58 -132.84 53.58"/><polygon class="cls-3" points="-42.62 -214.18 -131.87 -124.93 -131.87 53.58 46.64 53.58 135.89 -35.67 135.89 -214.18 -42.62 -214.18"/><polyline class="cls-3" points="45.67 53.58 45.67 -124.93 -43.1 -124.93"/><polygon class="cls-3" points="3877.77 142.84 3788.52 232.09 3788.52 410.6 3967.03 410.6 4056.28 321.34 4056.28 142.84 3877.77 142.84"/></g></svg>